<?xml version="1.0" encoding="UTF-8" standalone="no"?>
<!DOCTYPE svg PUBLIC "-//W3C//DTD SVG 1.1//EN" "http://www.w3.org/Graphics/SVG/1.1/DTD/svg11.dtd">
<svg width="100%" height="100%" viewBox="0 0 2132 662" version="1.1" xmlns="http://www.w3.org/2000/svg" xmlns:xlink="http://www.w3.org/1999/xlink" xml:space="preserve" xmlns:serif="http://www.serif.com/" style="fill-rule:evenodd;clip-rule:evenodd;stroke-linejoin:round;stroke-miterlimit:2;">
    <g transform="matrix(1,0,0,1,-7331,-1399)">
        <g id="WEB" transform="matrix(1.12786,0,0,1,-937.721,-0.559561)">
            <rect x="7331.35" y="1399.56" width="1889.76" height="661.417" style="fill:none;"/>
            <g id="Est" transform="matrix(0.886636,0,0,0.974,561.97,-532.985)">
                <g id="Horizontal3" transform="matrix(2.39537,0,0,2.45931,5191.99,1266.69)">
                    <g transform="matrix(208.333,0,0,208.333,1741.08,458.625)">
                        <path d="M0.567,-0.099L0.567,-0L0.08,-0L0.08,-0.71L0.558,-0.71L0.558,-0.611L0.192,-0.611L0.192,-0.409L0.509,-0.409L0.509,-0.316L0.192,-0.316L0.192,-0.099L0.567,-0.099Z" style="fill-rule:nonzero;"/>
                    </g>
                    <g transform="matrix(208.333,0,0,208.333,1586.29,458.625)">
                        <path d="M0.663,-0.71L0.663,-0L0.55,-0L0.55,-0.313L0.192,-0.313L0.192,-0L0.08,-0L0.08,-0.71L0.192,-0.71L0.192,-0.413L0.55,-0.413L0.55,-0.71L0.663,-0.71Z" style="fill-rule:nonzero;"/>
                    </g>
                    <g transform="matrix(1,0,0,1,-668.944,250.03)">
                        <path d="M2182.23,172.069L2148.09,172.069L2148.09,149.082L2182.23,149.082L2182.47,59.636L2205.58,59.636L2205.82,149.082L2239.97,149.082L2239.97,172.069L2205.82,172.069L2205.58,209.636L2182.47,209.636L2182.23,172.069Z"/>
                    </g>
                    <g transform="matrix(208.333,0,0,208.333,1330.7,458.625)">
                        <path d="M0.132,-0.71L0.328,-0.357L0.526,-0.71L0.649,-0.71L0.384,-0.254L0.384,-0L0.272,-0L0.272,-0.256L0.009,-0.71L0.132,-0.71Z" style="fill-rule:nonzero;"/>
                    </g>
                    <g transform="matrix(208.333,0,0,208.333,1192.15,458.625)">
                        <path d="M0.035,-0.361C0.035,-0.404 0.043,-0.447 0.058,-0.489C0.073,-0.53 0.096,-0.568 0.126,-0.603C0.155,-0.637 0.191,-0.664 0.234,-0.685C0.277,-0.705 0.325,-0.715 0.379,-0.715C0.443,-0.715 0.498,-0.701 0.545,-0.672C0.592,-0.643 0.626,-0.605 0.649,-0.56L0.561,-0.501C0.548,-0.53 0.531,-0.552 0.51,-0.569C0.49,-0.586 0.468,-0.597 0.445,-0.604C0.421,-0.611 0.398,-0.614 0.375,-0.614C0.338,-0.614 0.305,-0.607 0.277,-0.592C0.249,-0.577 0.226,-0.557 0.206,-0.532C0.188,-0.507 0.173,-0.48 0.164,-0.449C0.154,-0.418 0.149,-0.388 0.149,-0.357C0.149,-0.323 0.155,-0.29 0.166,-0.259C0.177,-0.227 0.193,-0.199 0.214,-0.174C0.234,-0.15 0.258,-0.131 0.286,-0.117C0.314,-0.103 0.345,-0.096 0.378,-0.096C0.401,-0.096 0.424,-0.1 0.449,-0.108C0.474,-0.116 0.497,-0.129 0.518,-0.146C0.539,-0.163 0.555,-0.185 0.567,-0.213L0.66,-0.16C0.645,-0.125 0.623,-0.095 0.592,-0.07C0.561,-0.045 0.526,-0.027 0.488,-0.014C0.449,-0.001 0.411,0.005 0.374,0.005C0.324,0.005 0.278,-0.006 0.237,-0.027C0.196,-0.048 0.16,-0.076 0.13,-0.111C0.1,-0.146 0.077,-0.185 0.06,-0.229C0.043,-0.272 0.035,-0.316 0.035,-0.361Z" style="fill-rule:nonzero;"/>
                    </g>
                    <g transform="matrix(208.333,0,0,208.333,1064.86,458.625)">
                        <path d="M0.5,-0.543C0.493,-0.55 0.484,-0.558 0.471,-0.567C0.458,-0.575 0.443,-0.583 0.426,-0.59C0.409,-0.597 0.39,-0.603 0.37,-0.608C0.35,-0.613 0.329,-0.615 0.308,-0.615C0.261,-0.615 0.227,-0.606 0.204,-0.589C0.181,-0.572 0.17,-0.548 0.17,-0.517C0.17,-0.495 0.176,-0.477 0.189,-0.464C0.202,-0.451 0.221,-0.44 0.247,-0.432C0.273,-0.423 0.306,-0.414 0.345,-0.404C0.393,-0.392 0.435,-0.379 0.47,-0.363C0.505,-0.348 0.532,-0.327 0.551,-0.301C0.57,-0.275 0.579,-0.241 0.579,-0.198C0.579,-0.162 0.572,-0.132 0.559,-0.106C0.546,-0.08 0.527,-0.059 0.503,-0.042C0.479,-0.026 0.451,-0.014 0.42,-0.006C0.389,0.001 0.355,0.005 0.319,0.005C0.284,0.005 0.249,0.001 0.214,-0.006C0.179,-0.013 0.145,-0.024 0.114,-0.039C0.082,-0.053 0.053,-0.07 0.026,-0.091L0.077,-0.187C0.086,-0.178 0.098,-0.169 0.115,-0.159C0.131,-0.148 0.15,-0.138 0.172,-0.129C0.193,-0.12 0.217,-0.112 0.243,-0.106C0.268,-0.099 0.294,-0.096 0.321,-0.096C0.366,-0.096 0.4,-0.104 0.424,-0.119C0.447,-0.135 0.459,-0.157 0.459,-0.186C0.459,-0.21 0.451,-0.23 0.436,-0.244C0.421,-0.258 0.398,-0.27 0.369,-0.28C0.34,-0.29 0.305,-0.3 0.264,-0.31C0.217,-0.323 0.178,-0.337 0.147,-0.352C0.116,-0.366 0.092,-0.386 0.077,-0.409C0.061,-0.433 0.053,-0.463 0.053,-0.5C0.053,-0.546 0.064,-0.586 0.087,-0.618C0.11,-0.65 0.141,-0.674 0.18,-0.691C0.219,-0.707 0.262,-0.715 0.311,-0.715C0.343,-0.715 0.373,-0.712 0.402,-0.705C0.431,-0.698 0.458,-0.688 0.483,-0.676C0.507,-0.664 0.53,-0.65 0.551,-0.635L0.5,-0.543Z" style="fill-rule:nonzero;"/>
                    </g>
                </g>
                <g transform="matrix(3.6975,0,0,3.7962,-2751.44,-7066.76)">
                    <text x="2839.88px" y="2550.76px" style="font-family:'Arial-BoldMT', 'Arial', sans-serif;font-weight:700;font-size:57.14px;">e<tspan x="2905.94px 2972px 3025.32px 3075.47px 3125.64px 3191.7px 3257.76px 3323.82px " y="2550.76px 2550.76px 2550.76px 2550.76px 2550.76px 2550.76px 2550.76px 2550.76px ">st. 2020</tspan></text>
                </g>
            </g>
        </g>
    </g>
</svg>
