<svg xmlns="http://www.w3.org/2000/svg" width="333" height="168" viewBox="0 0 333 168">
  <g fill="#FFF" fill-rule="evenodd" transform="translate(56 56)">
    <path fill-rule="nonzero" d="M157.0002,10 C166.941325,10 175.0002,18.0588745 175.0002,28 C175.0002,37.9411255 166.941325,46 157.0002,46 C147.059075,46 139.0002,37.9411255 139.0002,28 C139.0002,18.0588745 147.059075,10 157.0002,10 Z M184.0002,20 L184.0002,34 C184.0002,37.3139045 186.686213,40 190.0002,40 C193.23828,40 195.877757,37.4342332 195.996061,34.2249252 L196.0002,34 L196.0002,20 L202.0002,20 L202.0002,34 C202.0002,40.627278 196.627231,46 190.0002,46 C183.474428,46 178.165798,40.7916057 178.004,34.3049817 L178.0002,34 L178.0002,20 L184.0002,20 Z M87,10.0003 C91.8436865,10.0003 96.2405264,11.9134778 99.4760685,15.0253823 L95.2318227,19.2688699 C93.0831533,17.2424045 90.1866312,16.0003 87,16.0003 C80.372583,16.0003 75,21.372883 75,28.0003 C75,34.627717 80.372583,40.0003 87,40.0003 C92.5915441,40.0003 97.2898626,36.1759463 98.621966,31.0002282 L87,31 L87,25 L98.6219632,25.0003607 C98.621878,25.0000297 98.6217928,24.9996987 98.6217076,24.9993678 L104.750986,24.9994717 C104.914755,25.9753582 105,26.9778741 105,28.0003 C105,37.9414255 96.9411255,46.0003 87,46.0003 C77.0588745,46.0003 69,37.9414255 69,28.0003 C69,18.0591745 77.0588745,10.0003 87,10.0003 Z M122.0002,18 C129.732186,18 136.0002,24.2680135 136.0002,32 C136.0002,39.7319865 129.732186,46 122.0002,46 C114.268214,46 108.0002,39.7319865 108.0002,32 C108.0002,24.2680135 114.268214,18 122.0002,18 Z M215.0002,10 L215,20 L221.0002,20 L221.0002,26 L215,26 L215.0002,37 C215.0002,38.597795 216.248967,39.903669 217.823911,39.9949077 L218.0002,40 L221.0002,40 L221.0002,46 L218.0002,46 C213.11819,46 209.144401,42.1132557 209.004037,37.265366 L209.0002,37 L209,26 L205.0002,26 L205.0002,20 L209,20 L209.0002,10 L215.0002,10 Z M157.0002,16 C150.372783,16 145.0002,21.372583 145.0002,28 C145.0002,34.627417 150.372783,40 157.0002,40 C163.627617,40 169.0002,34.627417 169.0002,28 C169.0002,21.372583 163.627617,16 157.0002,16 Z M122.0002,24 C117.581922,24 114.0002,27.581722 114.0002,32 C114.0002,36.418278 117.581922,40 122.0002,40 C126.418478,40 130.0002,36.418278 130.0002,32 C130.0002,27.581722 126.418478,24 122.0002,24 Z"/>
    <polygon points="28 0 28 28 56 28 28 56 0 28"/>
  </g>
</svg>
