<?xml version="1.0" encoding="UTF-8" standalone="no"?>
<!DOCTYPE svg PUBLIC "-//W3C//DTD SVG 1.1//EN" "http://www.w3.org/Graphics/SVG/1.1/DTD/svg11.dtd">
<svg width="100%" height="100%" viewBox="0 0 30 30" version="1.1" xmlns="http://www.w3.org/2000/svg" xmlns:xlink="http://www.w3.org/1999/xlink" xml:space="preserve" xmlns:serif="http://www.serif.com/" style="fill-rule:evenodd;clip-rule:evenodd;stroke-linejoin:round;stroke-miterlimit:2;">
    <g transform="matrix(1,0,0,1,-6425,-1372)">
        <g id="Icon-Export" serif:id="Icon Export" transform="matrix(1,0,0,1,-0.634366,-0.453224)">
            <rect x="6425.63" y="1372.45" width="30" height="30" style="fill:none;"/>
            <g id="ic-cal" transform="matrix(0.488265,0,0,0.488265,6071.99,1365.48)">
                <path d="M768.129,22.001C768.469,22.007 768.808,22.026 769.147,22.065C769.928,22.155 770.699,22.337 771.437,22.608C772.874,23.134 774.182,23.995 775.237,25.102C776.211,26.123 776.965,27.348 777.434,28.678C777.682,29.381 777.85,30.113 777.935,30.853C777.973,31.192 777.993,31.531 777.999,31.871C778.056,40.623 778.056,49.377 777.999,58.129C777.993,58.469 777.973,58.808 777.935,59.147C777.85,59.887 777.682,60.619 777.434,61.322C776.965,62.652 776.211,63.878 775.237,64.898C774.182,66.005 772.874,66.866 771.437,67.392C770.699,67.663 769.928,67.845 769.147,67.935C768.808,67.974 768.469,67.993 768.129,67.999C759.376,68.055 750.623,68.055 741.871,67.999C741.531,67.993 741.192,67.974 740.853,67.935C740.072,67.845 739.301,67.663 738.563,67.392C737.277,66.921 736.093,66.182 735.102,65.237C733.965,64.153 733.088,62.804 732.566,61.322C732.318,60.619 732.15,59.887 732.065,59.147C732.027,58.808 732.007,58.469 732.001,58.129C731.944,49.377 731.944,40.623 732.001,31.871C732.007,31.531 732.027,31.192 732.065,30.853C732.15,30.113 732.318,29.381 732.566,28.678C733.088,27.196 733.965,25.846 735.102,24.763C736.093,23.818 737.277,23.079 738.563,22.608C739.301,22.337 740.072,22.155 740.853,22.065C741.192,22.026 741.531,22.007 741.871,22.001C750.623,21.945 759.376,21.945 768.129,22.001ZM771.926,36L738.074,36C738.041,43.368 738.049,46.64 738.097,54.007C738.103,54.314 738.122,54.619 738.161,54.923C738.231,55.481 738.362,56.031 738.548,56.561C738.966,57.747 739.668,58.826 740.578,59.694C741.371,60.45 742.318,61.041 743.347,61.418C743.937,61.635 744.553,61.78 745.177,61.852C745.448,61.883 745.72,61.898 745.993,61.903C754.728,61.958 755.272,61.958 764.007,61.903C764.28,61.898 764.552,61.883 764.823,61.852C765.447,61.78 766.063,61.635 766.653,61.418C767.803,60.997 768.849,60.308 769.694,59.422C770.472,58.605 771.076,57.625 771.451,56.561C771.65,55.999 771.784,55.415 771.852,54.823C771.883,54.552 771.898,54.28 771.903,54.007C771.951,46.64 771.959,43.368 771.926,36ZM763,47C765.208,47 767,48.792 767,51C767,53.208 765.208,55 763,55C760.792,55 759,53.208 759,51C759,48.792 760.792,47 763,47Z" style="fill:rgb(0,240,225);"/>
            </g>
        </g>
    </g>
</svg>
