<?xml version="1.0" encoding="UTF-8" standalone="no"?><!DOCTYPE svg PUBLIC "-//W3C//DTD SVG 1.1//EN" "http://www.w3.org/Graphics/SVG/1.1/DTD/svg11.dtd"><svg width="100%" height="100%" viewBox="0 0 1080 1080" version="1.1" xmlns="http://www.w3.org/2000/svg" xmlns:xlink="http://www.w3.org/1999/xlink" xml:space="preserve" xmlns:serif="http://www.serif.com/" style="fill-rule:evenodd;clip-rule:evenodd;stroke-linejoin:round;stroke-miterlimit:2;"><g id="Cut"><path id="BG" d="M540.676,1c-225.236,0 -291.109,0.232 -303.913,1.295c-46.222,3.842 -74.985,11.119 -106.32,26.721c-24.148,11.991 -43.193,25.891 -61.989,45.375c-34.231,35.534 -54.977,79.25 -62.487,131.215c-3.652,25.227 -4.714,30.372 -4.93,159.231c-0.083,42.952 0,99.481 0,175.304c0,225.054 0.249,290.86 1.328,303.64c3.734,44.977 10.788,73.275 25.725,104.228c28.547,59.251 83.068,103.731 147.298,120.327c22.239,5.726 46.803,8.88 78.337,10.373c13.36,0.581 149.538,0.996 285.798,0.996c136.26,0 272.521,-0.166 285.549,-0.83c36.513,-1.717 57.716,-4.564 81.159,-10.622c64.645,-16.679 118.169,-60.495 147.297,-120.576c14.647,-30.206 22.074,-59.583 25.435,-102.212c0.73,-9.294 1.037,-157.479 1.037,-305.465c0,-148.011 -0.332,-295.922 -1.062,-305.216c-3.403,-43.318 -10.83,-72.446 -25.949,-103.233c-12.407,-25.202 -26.182,-44.023 -46.181,-63.267c-35.692,-34.09 -79.342,-54.836 -131.356,-62.338c-25.202,-3.643 -30.223,-4.722 -159.181,-4.946l-175.595,-0Zm-0.311,141.073l0.062,0l-0.124,0l0.062,0c-108.121,0.001 -121.701,0.474 -164.18,2.407c-42.405,1.942 -71.35,8.655 -96.677,18.505c-26.198,10.174 -48.421,23.784 -70.562,45.932c-22.156,22.141 -35.766,44.364 -45.973,70.554c-9.875,25.335 -16.597,54.288 -18.505,96.676c-1.901,42.488 -2.399,56.073 -2.399,164.251c0,108.179 0.482,121.713 2.407,164.201c1.95,42.405 8.663,71.35 18.505,96.677c10.183,26.198 23.792,48.422 45.941,70.562c22.131,22.157 44.355,35.799 70.536,45.973c25.344,9.85 54.297,16.564 96.694,18.506c42.488,1.933 56.056,2.406 164.226,2.406c108.186,0 121.721,-0.473 164.209,-2.406c42.405,-1.942 71.383,-8.656 96.727,-18.506c26.19,-10.174 48.38,-23.816 70.511,-45.973c22.157,-22.14 35.767,-44.364 45.974,-70.553c9.792,-25.336 16.514,-54.289 18.505,-96.677c1.909,-42.488 2.407,-56.031 2.407,-164.21c-0,-108.178 -0.498,-121.754 -2.407,-164.242c-1.991,-42.405 -8.713,-71.35 -18.505,-96.677c-10.207,-26.198 -23.817,-48.421 -45.974,-70.562c-22.156,-22.157 -44.313,-35.766 -70.536,-45.932c-25.393,-9.85 -54.355,-16.563 -96.76,-18.505c-42.479,-1.933 -56.009,-2.406 -164.164,-2.407Zm-35.671,71.782c10.606,-0.017 22.439,-0 35.733,-0c106.353,-0 118.959,0.382 160.957,2.29c38.837,1.776 59.915,8.265 73.956,13.718c18.588,7.219 31.841,15.85 45.774,29.791c13.941,13.941 22.571,27.219 29.808,45.807c5.452,14.025 11.949,35.103 13.717,73.939c1.909,41.99 2.324,54.604 2.324,160.907c-0,106.303 -0.415,118.917 -2.324,160.907c-1.776,38.836 -8.265,59.914 -13.717,73.939c-7.22,18.588 -15.867,31.824 -29.808,45.757c-13.942,13.942 -27.178,22.572 -45.774,29.792c-14.025,5.477 -35.119,11.949 -73.956,13.725c-41.99,1.909 -54.604,2.324 -160.957,2.324c-106.361,-0 -118.966,-0.415 -160.956,-2.324c-38.837,-1.792 -59.915,-8.282 -73.964,-13.734c-18.588,-7.219 -31.866,-15.85 -45.807,-29.791c-13.942,-13.941 -22.572,-27.186 -29.808,-45.782c-5.452,-14.025 -11.95,-35.103 -13.718,-73.94c-1.908,-41.99 -2.29,-54.603 -2.29,-160.973c0,-106.369 0.382,-118.916 2.29,-160.906c1.776,-38.837 8.266,-59.915 13.718,-73.956c7.219,-18.588 15.866,-31.866 29.808,-45.807c13.941,-13.942 27.219,-22.572 45.807,-29.808c14.041,-5.477 35.127,-11.95 73.964,-13.734c36.745,-1.66 50.986,-2.158 125.223,-2.241l0,0.1Zm35.729,121.987l0.004,-0l-0.008,-0l0.004,-0c-112.962,-0 -204.552,91.59 -204.552,204.556c0,112.967 91.59,204.515 204.556,204.515c112.967,0 204.524,-91.548 204.524,-204.515c-0,-112.966 -91.565,-204.556 -204.528,-204.556Zm0.004,71.781c73.325,0 132.775,59.442 132.775,132.775c0,73.325 -59.45,132.775 -132.775,132.775c-73.333,0 -132.775,-59.45 -132.775,-132.775c0,-73.333 59.442,-132.775 132.775,-132.775Zm212.623,-127.63c-26.389,0 -47.799,21.385 -47.799,47.783c-0,26.389 21.41,47.799 47.799,47.799c26.389,-0 47.799,-21.41 47.799,-47.799c-0,-26.389 -21.41,-47.799 -47.799,-47.799l-0,0.016Z" style="fill:#fff;"/><path d="M311.816,927.922l-85.942,148.855c8.688,0.828 17.924,1.462 27.851,1.932c13.36,0.581 149.538,0.996 285.798,0.996c27.347,0 54.695,-0.006 81.054,-0.023l82.739,-143.308c-41.497,1.886 -55.834,2.349 -162.938,2.349c-108.17,0 -121.738,-0.473 -164.226,-2.406c-25.638,-1.175 -46.359,-4.094 -64.336,-8.395Zm410.074,-710.27c26.177,2.727 42.109,7.807 53.45,12.211c18.588,7.219 31.841,15.85 45.774,29.791c13.941,13.941 22.571,27.219 29.808,45.807c5.452,14.025 11.949,35.103 13.717,73.939c1.909,41.99 2.324,54.604 2.324,160.907c-0,60.986 -0.137,91.136 -0.614,113.685l-118.285,204.875c-11.944,2.564 -27.044,4.662 -46.68,5.56c-41.99,1.909 -54.604,2.324 -160.957,2.324c-106.361,-0 -118.966,-0.415 -160.956,-2.324c-11.232,-0.518 -20.978,-1.429 -29.499,-2.595l84.542,-146.43c30.891,18.728 67.143,29.511 105.913,29.511c112.967,0 204.524,-91.548 204.524,-204.515c-0,-77.201 -42.764,-144.419 -105.909,-179.249l82.848,-143.497Zm-118.752,205.685c41.703,22.386 70.064,66.41 70.064,117.061c0,73.325 -59.45,132.775 -132.775,132.775c-25.696,0 -49.686,-7.299 -70.018,-19.942l132.729,-229.894Zm242.846,-420.622l-85.606,148.273c15.255,3.124 28.509,7.187 40.911,11.997c26.223,10.166 48.38,23.775 70.536,45.932c22.157,22.141 35.767,44.364 45.974,70.562c9.792,25.327 16.514,54.272 18.505,96.677c1.838,40.899 2.368,55.008 2.404,152.506l140.827,-243.919c-0.157,-28.542 -0.355,-46.877 -0.597,-49.959c-3.403,-43.318 -10.83,-72.446 -25.949,-103.233c-12.407,-25.202 -26.182,-44.023 -46.181,-63.267c-35.692,-34.09 -79.342,-54.836 -131.356,-62.338c-10,-1.446 -16.823,-2.487 -29.468,-3.231Zm-92.934,277.278c-26.389,0 -47.799,21.385 -47.799,47.783c-0,26.389 21.41,47.799 47.799,47.799c26.389,-0 47.799,-21.41 47.799,-47.799c-0,-26.389 -21.41,-47.799 -47.799,-47.799l-0,0.016Z" style="fill:#e0f;"/><path d="M1079.54,284.743l-140.827,243.919c0.002,3.777 0.003,7.69 0.003,11.736c-0,108.179 -0.498,121.722 -2.407,164.21c-1.991,42.388 -8.713,71.341 -18.505,96.677c-10.207,26.189 -23.817,48.413 -45.974,70.553c-22.131,22.157 -44.321,35.799 -70.511,45.973c-25.344,9.85 -54.322,16.564 -96.727,18.506l-1.271,0.057l-82.739,143.308c104.937,-0.063 194.081,-0.276 204.495,-0.807c36.513,-1.717 57.716,-4.564 81.159,-10.622c64.645,-16.679 118.169,-60.495 147.297,-120.576c14.647,-30.206 22.074,-59.583 25.435,-102.212c0.73,-9.294 1.037,-157.479 1.037,-305.465c0,-98.916 -0.148,-197.787 -0.465,-255.257Zm-213.186,369.249c-0.354,16.76 -0.896,29.321 -1.71,47.222c-1.776,38.836 -8.265,59.914 -13.717,73.939c-7.22,18.588 -15.867,31.824 -29.808,45.757c-13.942,13.942 -27.178,22.572 -45.774,29.792c-6.934,2.708 -15.596,5.659 -27.276,8.165l118.285,-204.875Z" style="fill:#00f0e1;"/><path d="M142.07,535.379l-140.738,243.767c0.2,40.78 0.524,58.607 1.033,64.635c3.734,44.977 10.788,73.275 25.725,104.228c28.547,59.251 83.068,103.731 147.298,120.327c15.238,3.924 31.568,6.639 50.486,8.441l85.942,-148.855c-11.757,-2.813 -22.34,-6.217 -32.358,-10.111c-26.181,-10.174 -48.405,-23.816 -70.536,-45.973c-22.149,-22.14 -35.758,-44.364 -45.941,-70.562c-9.842,-25.327 -16.555,-54.272 -18.505,-96.677c-1.925,-42.488 -2.407,-56.022 -2.407,-164.201l0.001,-5.019Zm179.598,-311.073c13.343,-3.743 31.503,-7.102 57.803,-8.31c36.745,-1.66 50.986,-2.158 125.223,-2.241l0,0.1c10.606,-0.017 22.439,-0 35.733,-0c106.353,-0 118.959,0.382 160.957,2.29c7.468,0.342 14.28,0.858 20.506,1.507l-82.848,143.497c-29.236,-16.127 -62.855,-25.307 -98.619,-25.307l0.004,-0l-0.008,-0l0.004,-0c-112.962,-0 -204.552,91.59 -204.552,204.556c0,74.197 39.511,139.154 98.643,175.004l-84.542,146.43c-20.941,-2.864 -34.479,-7.263 -44.465,-11.139c-18.588,-7.219 -31.866,-15.85 -45.807,-29.791c-13.942,-13.941 -22.572,-27.186 -29.808,-45.782c-5.452,-14.025 -11.95,-35.103 -13.718,-73.94c-1.908,-41.99 -2.29,-54.603 -2.29,-160.973c0,-77.798 0.204,-105.407 1.061,-131.05l106.723,-184.851Zm148.741,428.925c-37.673,-23.424 -62.757,-65.201 -62.757,-112.833c0,-73.333 59.442,-132.775 132.775,-132.775c22.68,0 44.032,5.687 62.711,15.714l-132.729,229.894Zm-19.825,-652.213l-83.103,143.939c2.841,-0.182 5.74,-0.341 8.704,-0.477c42.479,-1.933 56.059,-2.406 164.18,-2.407l-0.062,0l0.124,0l-0.062,0c108.155,0.001 121.685,0.474 164.164,2.407c21.694,0.993 39.87,3.236 55.849,6.508l85.606,-148.273c-19.233,-1.134 -51.925,-1.58 -129.713,-1.715l-175.595,-0c-33.425,-0 -63.34,0.005 -90.092,0.018Z" style="fill:#fff300;"/><path d="M450.584,1.018c-153.526,0.069 -202.917,0.372 -213.821,1.277c-46.222,3.842 -74.985,11.119 -106.32,26.721c-24.148,11.991 -43.193,25.891 -61.989,45.375c-34.231,35.534 -54.977,79.25 -62.487,131.215c-3.652,25.227 -4.714,30.372 -4.93,159.231c-0.083,42.952 0,99.481 0,175.304c0,118.896 0.07,193.346 0.295,239.005l140.738,-243.767c0.015,-103.593 0.527,-117.411 2.398,-159.232c1.908,-42.388 8.63,-71.341 18.505,-96.676c10.207,-26.19 23.817,-48.413 45.973,-70.554c22.141,-22.148 44.364,-35.758 70.562,-45.932c23.557,-9.161 50.243,-15.609 87.973,-18.028l83.103,-143.939Zm-128.916,223.288l-106.723,184.851c0.314,-9.423 0.717,-18.578 1.229,-29.856c1.776,-38.837 8.266,-59.915 13.718,-73.956c7.219,-18.588 15.866,-31.866 29.808,-45.807c13.941,-13.942 27.219,-22.572 45.807,-29.808c4.532,-1.768 9.799,-3.64 16.161,-5.424Z" style="fill:#fff;"/></g></svg>