<?xml version="1.0" encoding="UTF-8" standalone="no"?>
<!DOCTYPE svg PUBLIC "-//W3C//DTD SVG 1.1//EN" "http://www.w3.org/Graphics/SVG/1.1/DTD/svg11.dtd">
<svg width="100%" height="100%" viewBox="0 0 1080 1080" version="1.1" xmlns="http://www.w3.org/2000/svg" xmlns:xlink="http://www.w3.org/1999/xlink" xml:space="preserve" xmlns:serif="http://www.serif.com/" style="fill-rule:evenodd;clip-rule:evenodd;stroke-linejoin:round;stroke-miterlimit:2;">
    <g id="Cut">
        <path d="M550.231,142.075L540.365,142.073C432.244,142.074 418.664,142.547 376.185,144.48C333.78,146.422 304.835,153.135 279.508,162.985C253.31,173.159 231.087,186.769 208.946,208.917C186.79,231.058 173.18,253.281 162.973,279.471C153.098,304.806 146.376,333.759 144.468,376.147C142.567,418.635 142.069,432.22 142.069,540.398C142.069,648.577 142.551,662.111 144.476,704.599C146.426,747.004 153.139,775.949 162.981,801.276C173.164,827.474 186.773,849.698 208.922,871.838C231.053,893.995 253.277,907.637 279.458,917.811C304.802,927.661 333.755,934.375 376.152,936.317C418.64,938.25 432.208,938.723 540.378,938.723C648.564,938.723 662.099,938.25 704.587,936.317C746.992,934.375 775.97,927.661 801.314,917.811C827.504,907.637 849.694,893.995 871.825,871.838C893.982,849.698 907.592,827.474 917.799,801.285C927.591,775.949 934.313,746.996 936.304,704.608C938.213,662.12 938.711,648.577 938.711,540.398C938.711,432.22 938.213,418.644 936.304,376.156C934.313,333.751 927.591,304.806 917.799,279.479C907.592,253.281 893.982,231.058 871.825,208.917C849.669,186.76 827.512,173.151 801.289,162.985C775.896,153.135 746.934,146.422 704.529,144.48C663.38,142.608 649.395,142.105 550.231,142.075ZM504.694,213.855C515.3,213.838 527.133,213.855 540.427,213.855C646.78,213.855 659.386,214.237 701.384,216.145C740.221,217.921 761.299,224.41 775.34,229.863C793.928,237.082 807.181,245.713 821.114,259.654C835.055,273.595 843.685,286.873 850.922,305.461C856.374,319.486 862.871,340.564 864.639,379.4C866.548,421.39 866.963,434.004 866.963,540.307C866.963,646.61 866.548,659.224 864.639,701.214C862.863,740.05 856.374,761.128 850.922,775.153C843.702,793.741 835.055,806.977 821.114,820.91C807.172,834.852 793.936,843.482 775.34,850.702C761.315,856.179 740.221,862.651 701.384,864.427C659.394,866.336 646.78,866.751 540.427,866.751C434.066,866.751 421.461,866.336 379.471,864.427C340.634,862.635 319.556,856.145 305.507,850.693C286.919,843.474 273.641,834.843 259.7,820.902C245.758,806.961 237.128,793.716 229.892,775.12C224.44,761.095 217.942,740.017 216.174,701.18C214.266,659.19 213.884,646.577 213.884,540.207C213.884,433.838 214.266,421.291 216.174,379.301C217.95,340.464 224.44,319.386 229.892,305.345C237.111,286.757 245.758,273.479 259.7,259.538C273.641,245.596 286.919,236.966 305.507,229.73C319.548,224.253 340.634,217.78 379.471,215.996C416.216,214.336 430.457,213.838 504.694,213.755L504.694,213.855ZM541.085,335.843L540.423,335.842C427.461,335.842 335.871,427.432 335.871,540.398C335.871,653.365 427.461,744.913 540.427,744.913C653.394,744.913 744.951,653.365 744.951,540.398C744.951,427.658 653.752,336.208 541.085,335.843ZM540.427,407.623C613.752,407.623 673.202,467.065 673.202,540.398C673.202,613.723 613.752,673.173 540.427,673.173C467.094,673.173 407.652,613.723 407.652,540.398C407.652,467.065 467.094,407.623 540.427,407.623ZM753.05,279.993C726.661,279.993 705.251,301.378 705.251,327.776C705.251,354.165 726.661,375.575 753.05,375.575C779.439,375.575 800.849,354.165 800.849,327.776C800.849,301.387 779.439,279.977 753.05,279.977L753.05,279.993Z" style="fill:rgb(255,243,0);"/>
    </g>
</svg>
