<?xml version="1.0" encoding="UTF-8" standalone="no"?>
<!DOCTYPE svg PUBLIC "-//W3C//DTD SVG 1.1//EN" "http://www.w3.org/Graphics/SVG/1.1/DTD/svg11.dtd">
<svg width="100%" height="100%" viewBox="0 0 844 852" version="1.1" xmlns="http://www.w3.org/2000/svg" xmlns:xlink="http://www.w3.org/1999/xlink" xml:space="preserve" xmlns:serif="http://www.serif.com/" style="fill-rule:evenodd;clip-rule:evenodd;stroke-linecap:round;stroke-linejoin:round;stroke-miterlimit:1.5;">
    <g transform="matrix(1,0,0,1,-7253.5,-1526.65)">
        <g transform="matrix(1,0,0,1,-0.790418,-0.754534)">
            <g transform="matrix(1.50926,-0.216806,0.216806,1.50926,9077.32,965.905)">
                <g id="track-group">
                    <g id="track" transform="matrix(0.898842,-0.438273,0.438273,0.898842,-3388.64,-674.032)">
                        <path d="M1997.44,2037.8C1997.44,2037.8 1991.45,2029.03 1968.29,2012.83C1953.7,2002.63 1864.7,1963.71 1854.13,1959.07C1807.41,1938.56 1758.3,1923.85 1717.41,1975.84C1691.99,2008.15 1672.13,2006.75 1614.76,1997.77C1587.17,1993.46 1507.77,1978.07 1469.25,1972.8C1447.07,1969.76 1400.77,1957.19 1381.96,1982.98C1344.41,2034.43 1398.88,2076.38 1398.88,2076.38C1398.88,2076.38 1592.65,2229.23 1633.86,2269.81C1645.76,2281.53 1656.18,2304.37 1637.9,2327.91C1618.76,2352.55 1591.43,2350.52 1561.05,2344.09C1522.71,2335.98 1401.3,2223.03 1401.3,2223.03C1372.38,2200.53 1340.45,2197.53 1327.58,2226.65" style="fill:none;stroke:rgb(255,243,207);stroke-width:5.25px;"/>
                    </g>
                    <g transform="matrix(1.18692,0,0,1.2243,-2919.4,-2050.47)">
                        <circle cx="1869.76" cy="1905.58" r="8.949" style="fill:rgb(29,29,29);"/>
                        <path d="M1869.76,1896.63C1874.7,1896.63 1878.71,1900.64 1878.71,1905.58C1878.71,1910.52 1874.7,1914.53 1869.76,1914.53C1864.82,1914.53 1860.81,1910.52 1860.81,1905.58C1860.81,1900.64 1864.82,1896.63 1869.76,1896.63ZM1869.76,1900.38C1872.6,1900.38 1874.84,1902.74 1874.84,1905.58C1874.84,1908.41 1872.6,1910.78 1869.76,1910.78C1866.92,1910.78 1864.68,1908.41 1864.68,1905.58C1864.68,1902.74 1866.92,1900.38 1869.76,1900.38Z" style="fill:rgb(255,243,207);"/>
                    </g>
                    <g transform="matrix(1.18692,0,0,1.2243,-3439.57,-1582.98)">
                        <circle cx="1869.76" cy="1905.58" r="8.949" style="fill:rgb(29,29,29);"/>
                        <path d="M1869.76,1896.63C1874.7,1896.63 1878.71,1900.64 1878.71,1905.58C1878.71,1910.52 1874.7,1914.53 1869.76,1914.53C1864.82,1914.53 1860.81,1910.52 1860.81,1905.58C1860.81,1900.64 1864.82,1896.63 1869.76,1896.63ZM1869.76,1900.38C1872.6,1900.38 1874.84,1902.74 1874.84,1905.58C1874.84,1908.41 1872.6,1910.78 1869.76,1910.78C1866.92,1910.78 1864.68,1908.41 1864.68,1905.58C1864.68,1902.74 1866.92,1900.38 1869.76,1900.38Z" style="fill:rgb(255,243,207);"/>
                    </g>
                </g>
            </g>
        </g>
    </g>
</svg>
