<?xml version="1.0" encoding="UTF-8" standalone="no"?>
<!DOCTYPE svg PUBLIC "-//W3C//DTD SVG 1.1//EN" "http://www.w3.org/Graphics/SVG/1.1/DTD/svg11.dtd">
<svg width="100%" height="100%" viewBox="0 0 1600 1088" version="1.1" xmlns="http://www.w3.org/2000/svg" xmlns:xlink="http://www.w3.org/1999/xlink" xml:space="preserve" xmlns:serif="http://www.serif.com/" style="fill-rule:evenodd;clip-rule:evenodd;stroke-linejoin:round;stroke-miterlimit:2;">
    <g transform="matrix(1,0,0,1,-6745,-2045.22)">
        <g transform="matrix(1,0,0,1,-0.790418,-0.754534)">
            <g id="BG" transform="matrix(1,0,0,1,0.790418,0.754534)">
                <path d="M6745,2229.71C6779.34,2230.2 6821.9,2220.72 6860.17,2206.23L6832.86,2222.65L6837.34,2234.65L6916.47,2229.93L6918.99,2212.82L6909.2,2224.8L6908.64,2211.48L6901.09,2221.94L6899.97,2211.1L6888.78,2217.19C6893.9,2211.96 6892.25,2208.91 6883.19,2208.25L6918.71,2202.74L6920.39,2195.7L6913.12,2194.75L6922.07,2188.09L6927.66,2178.01C6927.66,2178.01 6929.34,2175.73 6925.42,2171.93C6921.51,2168.12 6930.46,2166.03 6930.46,2166.03C6930.46,2166.03 6938.29,2163.56 6931.02,2159.76C6923.74,2155.95 6934.55,2146.58 6935.59,2145.06C6936.62,2143.54 6936.74,2148.77 6937.22,2150.63C6937.81,2152.89 6935.75,2157.14 6939.08,2158.58C6942.6,2160.11 6957.14,2158.53 6958.31,2159.77C6959.47,2161.01 6947.6,2163.83 6946.07,2166.01C6944.56,2168.16 6950.15,2171.31 6949.13,2172.85C6948.11,2174.38 6940.83,2173.59 6939.95,2175.22C6939.08,2176.86 6942.21,2180.37 6943.89,2182.65C6945.53,2184.89 6951.32,2187.85 6950.01,2188.89C6948.69,2189.93 6936.1,2187.41 6936.02,2188.89C6935.95,2190.38 6948.62,2195.87 6949.57,2197.8C6950.5,2199.7 6938.83,2200.1 6941.7,2200.48C6945.42,2200.97 6969.16,2199.98 6971.86,2200.78C6974.55,2201.57 6962.02,2204.49 6957.87,2205.23C6954.35,2205.86 6948.62,2204.49 6946.95,2205.23C6945.27,2205.98 6948.99,2208.95 6947.82,2209.69C6946.66,2210.43 6941.99,2208.75 6939.95,2209.69C6937.91,2210.63 6933.41,2213.81 6935.59,2215.34C6937.99,2217.02 6948.33,2217.94 6954.38,2219.79C6961,2221.82 6969.02,2226.08 6975.35,2227.52C6980.76,2228.74 6991.52,2227.67 6992.4,2228.41C6993.27,2229.15 6984.6,2231.68 6980.6,2231.98C6976.59,2232.27 6971.35,2229.8 6968.36,2230.19C6965.63,2230.56 6965.45,2234.16 6962.68,2234.35C6959.84,2234.55 6953.43,2230.49 6951.32,2231.38C6949.2,2232.27 6946.03,2239.03 6950.01,2239.7C6957.29,2240.94 6982.71,2237.87 6995.02,2238.81C7005.09,2239.58 7023.93,2244.11 7023.86,2245.35C7023.79,2246.59 6997.57,2244.9 6994.58,2246.24C6991.59,2247.58 7008.71,2252.83 7005.94,2253.37C7003.18,2253.91 6982.13,2248.96 6977.97,2249.51C6974.4,2249.98 6984.57,2256.06 6981.03,2256.64C6977.39,2257.23 6959.55,2251.54 6956.12,2253.07C6952.7,2254.61 6962.32,2265.26 6960.49,2265.85C6958.67,2266.44 6948.33,2256.99 6945.2,2256.64C6942.07,2256.29 6940.98,2261.49 6941.7,2263.77C6942.43,2266.05 6937.77,2265.55 6949.57,2270.31C6961.37,2275.06 7001.14,2269.71 7001.14,2269.71L7026.05,2277.74L7034.78,2287.84L6998.08,2282.19L7005.94,2291.7L6984.53,2288.73L6989.34,2297.94L6958.31,2296.16L6951.75,2303.29C6951.75,2303.29 6955.69,2323.2 6988.03,2320.23C7020.36,2317.26 7050.95,2304.78 7050.95,2304.78L7042.65,2318.44L7052.27,2325.58L7025.17,2321.41L7034.78,2330.92L7012.06,2328.84L7019.05,2339.54L6992.83,2334.19L7004.63,2346.67L6970.98,2343.11L6976.23,2354.99L6942.58,2353.21C6942.58,2353.21 6946.07,2361.83 6962.68,2364.5C6979.28,2367.17 7014.69,2361.97 7043.53,2357.07C7057.51,2354.69 7064.07,2347.27 7064.07,2347.27L7053.7,2358.75L7109.2,2355.44L7111.72,2338.33L7101.93,2350.31L7101.37,2337L7093.82,2347.45L7092.7,2336.62L7081.51,2342.7C7086.62,2337.47 7084.98,2334.42 7075.92,2333.76L7111.44,2328.25L7113.12,2321.21L7105.84,2320.26L7114.79,2313.61L7120.39,2303.53C7120.39,2303.53 7122.07,2301.24 7118.15,2297.44C7114.24,2293.64 7123.19,2291.55 7123.19,2291.55C7123.19,2291.55 7131.02,2289.07 7123.74,2285.27C7116.47,2281.47 7127.28,2272.1 7128.31,2270.58C7129.35,2269.05 7129.47,2274.28 7129.95,2276.15C7130.53,2278.4 7128.48,2282.65 7131.81,2284.1C7135.32,2285.62 7149.87,2284.05 7151.04,2285.28C7152.2,2286.52 7140.33,2289.35 7138.8,2291.52C7137.29,2293.67 7142.88,2296.82 7141.86,2298.36C7140.84,2299.89 7133.56,2299.1 7132.68,2300.74C7131.81,2302.37 7134.94,2305.89 7136.61,2308.16C7138.26,2310.4 7144.04,2313.36 7142.73,2314.4C7141.42,2315.44 7128.82,2312.92 7128.75,2314.4C7128.68,2315.89 7141.35,2321.39 7142.3,2323.32C7143.22,2325.21 7131.55,2325.61 7134.43,2325.99C7138.14,2326.49 7161.89,2325.5 7164.58,2326.29C7167.28,2327.08 7154.75,2330 7150.6,2330.75C7147.08,2331.38 7141.35,2330 7139.67,2330.75C7138,2331.49 7141.71,2334.46 7140.55,2335.2C7139.38,2335.95 7134.72,2334.26 7132.68,2335.2C7130.64,2336.14 7126.13,2339.32 7128.31,2340.85C7130.72,2342.53 7141.06,2343.45 7147.1,2345.31C7153.73,2347.34 7161.74,2351.6 7168.08,2353.03C7173.49,2354.26 7184.25,2353.18 7185.12,2353.92C7186,2354.67 7177.33,2357.19 7173.32,2357.49C7169.32,2357.79 7164.07,2355.31 7161.09,2355.71C7158.36,2356.07 7158.18,2359.67 7155.41,2359.87C7152.57,2360.06 7146.16,2356 7144.04,2356.89C7141.93,2357.79 7138.75,2364.54 7142.73,2365.21C7150.02,2366.45 7175.44,2363.38 7187.74,2364.32C7197.82,2365.09 7216.66,2369.62 7216.59,2370.86C7216.51,2372.1 7190.29,2370.41 7187.31,2371.75C7184.32,2373.09 7201.44,2378.34 7198.67,2378.88C7195.9,2379.43 7174.85,2374.47 7170.7,2375.02C7167.13,2375.49 7177.3,2381.57 7173.76,2382.15C7170.12,2382.74 7152.27,2377.05 7148.85,2378.59C7145.43,2380.12 7155.04,2390.77 7153.22,2391.36C7151.4,2391.96 7141.06,2382.5 7137.93,2382.15C7134.79,2381.8 7133.7,2387 7134.43,2389.28C7135.16,2391.56 7130.5,2391.07 7142.3,2395.82C7154.1,2400.57 7193.86,2395.22 7193.86,2395.22L7218.77,2403.25L7227.51,2413.35L7190.8,2407.7L7198.67,2417.21L7177.26,2414.24L7182.06,2423.45L7151.04,2421.67L7144.48,2428.8C7144.48,2428.8 7148.41,2448.71 7180.75,2445.74C7213.09,2442.77 7243.68,2430.29 7243.68,2430.29L7235.38,2443.96L7244.99,2451.09L7217.9,2446.93L7227.51,2456.43L7204.79,2454.36L7211.78,2465.05L7185.56,2459.7L7197.36,2472.18L7163.71,2468.62L7168.95,2480.5L7135.3,2478.72C7135.3,2478.72 7138.8,2487.34 7155.41,2490.01C7172.01,2492.69 7207.42,2487.49 7236.25,2482.58C7250.24,2480.21 7256.79,2472.78 7256.79,2472.78L7244.99,2485.85L7259.85,2494.77L7224.45,2493.58L7255.04,2509.03L7215.28,2501.3L7222.27,2515.57L7185.12,2508.14L7192.99,2520.32L7160.65,2512.89L7185.12,2533.69C7185.12,2533.69 7226.64,2542.01 7241.06,2534.29C7255.48,2526.56 7283.01,2521.51 7283.01,2521.51C7283.01,2521.51 7262.04,2529.53 7257.67,2535.18C7253.3,2540.82 7279.95,2546.17 7279.95,2546.17L7240.62,2545.28L7268.59,2556.27L7215.28,2550.33L7234.5,2567.27L7192.99,2558.65L7199.11,2570.54L7167.2,2565.19L7175.51,2576.48L7142.73,2569.64C7142.73,2569.64 7153.66,2585.69 7180.32,2587.18C7206.97,2588.66 7271.21,2584.2 7287.38,2576.78C7303.55,2569.35 7261.16,2591.93 7261.16,2591.93L7279.95,2598.17L7237.13,2596.09L7254.17,2605.3L7206.1,2596.39L7232.32,2617.19L7172.01,2600.55L7185.56,2616.3L7153.22,2605.01L7158.03,2616L7131.81,2604.41C7131.81,2604.41 7136.1,2615.84 7153.1,2623.3C7203.77,2624.59 7213.61,2620.42 7214.35,2620.06L7214.4,2620.04L7194.73,2629.84L7186.86,2628.36L7188.36,2630.95C7221.04,2635.19 7265.1,2637.99 7265.1,2637.99C7265.1,2637.99 7305.74,2642.15 7334.14,2635.61C7362.55,2629.07 7314.48,2651.36 7314.48,2651.36L7281.26,2653.14L7317.97,2661.46L7260.73,2655.82L7275.58,2666.81L7235.38,2658.49L7233.19,2673.05L7211.34,2666.22C7211.34,2666.22 7211.78,2681.07 7234.07,2683.45C7256.36,2685.83 7333.7,2669.78 7333.7,2669.78L7342.44,2685.53L7317.53,2683.75L7345.94,2705.14L7300.93,2693.26L7310.54,2703.36L7281.26,2698.31L7276.89,2706.92L7257.67,2705.44L7260.29,2711.08L7234.07,2708.11C7234.07,2708.11 7244.99,2723.56 7250.67,2727.13C7256.36,2730.69 7213.97,2717.03 7213.97,2717.03L7226.64,2732.77C7226.64,2732.77 7236.69,2743.47 7316.22,2747.63C7392.88,2751.64 7406.21,2745.99 7407.07,2745.58L7387.46,2755.36L7379.59,2753.87L7384.4,2762.19L7362.11,2758.33L7366.48,2772.59L7320.6,2769.62L7324.97,2791.31L7280.39,2779.13L7293.5,2794.28C7293.5,2794.28 7253.3,2790.12 7246.74,2788.04C7240.19,2785.96 7252.86,2803.2 7252.86,2803.2L7197.36,2790.72L7203.48,2815.08L7154.1,2803.49L7175.94,2826.08L7139.67,2818.94C7139.67,2818.94 7134.87,2840.93 7154.53,2843.61C7174.2,2846.28 7195.17,2861.14 7195.17,2861.14L7158.9,2858.46L7185.12,2872.73L7142.3,2864.11L7165.46,2889.66C7165.46,2889.66 7084.61,2877.18 7155.41,2896.79C7226.2,2916.41 7241.5,2900.95 7241.5,2900.95L7232.32,2919.67L7244.12,2926.51L7200.42,2919.08L7225.33,2932.75L7172.89,2914.62L7188.18,2936.61L7154.1,2927.99L7161.09,2944.34L7118.26,2928.89L7133.56,2956.22L7092.48,2933.94C7092.48,2933.94 7105.15,2970.49 7145.79,2979.1C7186.43,2987.72 7220.52,2997.82 7220.52,2997.82L7176.38,2995.74L7184.25,3008.22L7151.04,2996.04L7153.22,3011.49L7113.02,2985.34L7108.45,3006.18L7178.53,3028.81L7305.78,3120.54L7447.64,3049.98L7624.14,3113.24L7778.56,3019.16L7891.68,3125.01L7940.08,3051.86L7937.75,2963.26L7905.07,2972.12L7909.51,2963.17L7899.2,2967.47L7908.74,2957.44L7887.61,2962.22L7890.2,2954.49L7830.17,2963.92C7880.02,2953.54 7915.95,2943.3 7932.51,2933.24L7938.48,2918.44L7918.89,2926.43L7916.53,2920.18L7900.11,2929.19L7887.83,2920.39L7867.95,2933.76L7855.63,2920.84L7825.32,2927.83L7833.38,2916.54L7796.76,2925.35L7842.16,2906.85L7930.64,2890.09L7933.79,2874.16L7906.39,2887.81C7906.39,2887.81 7913.06,2877.44 7907.28,2879.43C7901.5,2881.42 7884.77,2891.94 7884.77,2891.94C7884.77,2891.94 7894.41,2881.16 7888.53,2882.44C7882.65,2883.72 7856.77,2897.4 7856.77,2897.4L7865.26,2885.57L7830,2900.76L7840.16,2882.62L7762.44,2889.43C7762.44,2889.43 7759.44,2889.59 7813.66,2876.71C7867.88,2863.83 7889.34,2869.69 7913.93,2857.64C7938.52,2845.58 7906.78,2853.25 7906.78,2853.25L7888.19,2857.45L7890.23,2850.13L7873.96,2860.34L7873.46,2852.87L7837.36,2865.51L7855.36,2849.47L7808.27,2862.86L7803.78,2844.5L7784.37,2857.56L7764.6,2834.22L7748.44,2841.5L7755.47,2830.1L7738.27,2825.85C7738.27,2825.85 7869.88,2841.2 7922.31,2830.02C7974.74,2818.84 7932.7,2821.09 7932.7,2821.09L7914.61,2825.22L7914.31,2815.54L7904.61,2825.84L7900.88,2816.86L7886,2826.16L7880.5,2815.23L7846.78,2823.17L7852.79,2815.31L7826.47,2822.01L7807.25,2817.79C7855.29,2811.26 7901.04,2803.98 7930.73,2791.46L7901.46,2794.91L7894.03,2788.38L7894.1,2796.39L7880.31,2787.55L7863.27,2799.56L7861.79,2788.58L7839.78,2801.02L7842.11,2784.67L7822.89,2791.63L7812.19,2783.35L7800.73,2788.05L7788.43,2786.54L7817.74,2772.15L7775.4,2775.9L7813.61,2767.6L7771.95,2765.19C7771.95,2765.19 7774.32,2764.14 7820.65,2763.74C7866.97,2763.34 7880.24,2768.36 7901.9,2764.48C7923.56,2760.59 7930.64,2745.79 7930.64,2745.79L7909.29,2755.71L7908.63,2747.05L7892.14,2755.58L7892.21,2744.88L7868.62,2753.16L7872.1,2741.51L7840.33,2748.94L7862.08,2738.24L7820.5,2740.19L7849.79,2733.09L7804.05,2730.25C7806.07,2724.62 7891.38,2730.62 7921.19,2724.22C7924.01,2723.61 7892.29,2723 7892.29,2723L7897.04,2713.37L7880.12,2722.45L7883.58,2714.45L7859.53,2723.03L7872.57,2711.31L7849.42,2719.04L7858.83,2706.6L7832.22,2711.15L7828.32,2704.63L7808.34,2706.89L7829.57,2696.13L7796.93,2692.32C7847.8,2697.18 7898.04,2701.5 7931.66,2691.52L7914.51,2690.48L7920.07,2680.32L7896.99,2686.76L7905.29,2673.5L7882.34,2680.84L7890.03,2663.09L7852.11,2680.95L7859.76,2662.91L7830.4,2674.15L7836.94,2657.17L7810.82,2650.36C7856.7,2655.84 7899.32,2656.1 7935.64,2646.25L7938.45,2639.39L7936.98,2636.45L7932.09,2642.27L7925.33,2629.51L7920.35,2639.3L7909.64,2625.24L7905.38,2640.4L7893.83,2629.5L7890.04,2638.82L7883.23,2630.31L7868.06,2639.34L7868.31,2627.16L7853.22,2636.78L7853.38,2628.56L7845.27,2633.9L7840.88,2629.33C7840.88,2629.33 7885.25,2617.28 7912.9,2612.05C7940.55,2606.81 7943.13,2604.33 7943.13,2604.33L7939.79,2598.68L7935.73,2603.09L7933.23,2599.82L7924.11,2604.9L7914.97,2598.41L7902.07,2606.12L7895.92,2598.74L7877.07,2602.51L7866.33,2597.49C7866.33,2597.49 7922.12,2593.97 7927.89,2590.83C7933.66,2587.69 7934.17,2583.76 7934.17,2583.76L7925.17,2585.97L7918.27,2584.53L7913.59,2590.01L7910.04,2584.77L7902.47,2589.89L7897.51,2583.72L7875.37,2582.21C7898.19,2580.12 7921.6,2578.27 7935.51,2572.63L7937.88,2561.49L7929.86,2569.04L7928.35,2561.65L7917.98,2570.88L7914.44,2561.78L7899.57,2572.12L7893.66,2564.7L7876.32,2572.01L7881.82,2564.92L7862.09,2565.96L7933.93,2553.19L7934.73,2541.88L7926.89,2550.77L7925.23,2542.29L7919.29,2549.93L7917.34,2543.1L7907.73,2548.37C7911.91,2544.39 7910.15,2542.63 7901.89,2543.31L7933.6,2535.44L7934.52,2530.71L7927.84,2530.99L7935.38,2525.62L7939.58,2518.46C7939.58,2518.46 7940.9,2516.79 7937.03,2514.82C7933.15,2512.85 7941.08,2510.42 7941.08,2510.42C7941.08,2510.42 7947.96,2507.87 7941.04,2506.32C7934.12,2504.76 7943.11,2497.42 7943.91,2496.32C7944.72,2495.21 7945.28,2498.56 7945.88,2499.7C7946.6,2501.07 7945.11,2504.06 7948.25,2504.58C7951.57,2505.13 7964.62,2502.34 7965.78,2503C7966.94,2503.65 7956.43,2506.91 7955.23,2508.5C7954.05,2510.07 7959.39,2511.41 7958.59,2512.52C7957.8,2513.63 7951.13,2514.01 7950.48,2515.16C7949.83,2516.32 7952.97,2518.2 7954.69,2519.46C7956.37,2520.7 7961.87,2521.9 7960.77,2522.72C7959.67,2523.55 7948.03,2523.47 7948.1,2524.43C7948.16,2525.39 7960.12,2527.38 7961.15,2528.51C7962.15,2529.61 7951.61,2531.29 7954.25,2531.18C7957.66,2531.05 7979.09,2527.52 7981.6,2527.7C7984.11,2527.88 7973.01,2531.28 7969.31,2532.27C7966.18,2533.1 7960.87,2532.92 7959.41,2533.6C7957.96,2534.28 7961.58,2535.74 7960.59,2536.36C7959.6,2536.98 7955.23,2536.46 7953.46,2537.32C7951.69,2538.17 7947.88,2540.76 7949.99,2541.48C7952.31,2542.27 7961.76,2541.6 7967.4,2542.05C7967.6,2542.07 7967.8,2542.09 7967.99,2542.1C7974.88,2542.18 7985.1,2542.45 8000.22,2543.09C8001.49,2542.93 8002.38,2542.86 8002.61,2542.95C8002.72,2543 8002.69,2543.08 8002.56,2543.19L8002.78,2543.2C8049.43,2545.23 8063.09,2553.09 8084.69,2548.8C8102.02,2545.36 8109.51,2531.44 8111.79,2526.06L8103.88,2531.73L8103.06,2529.79L8091.65,2536.79L8090.49,2524.48L8074.36,2535.65L8073.83,2520.49L8050.53,2530.89L8053.38,2514.59L8021.79,2523.34L8043.1,2509.39L8001.32,2509.82L8030.43,2501.41L7984.18,2494.82C7985.53,2488.67 8038.65,2495.47 8075.91,2495.16L8078.95,2490.03C8075.29,2489.71 8072.68,2489.49 8072.68,2489.49L8074.24,2484.59L8069.1,2481.76L8060.39,2488.03L8063.43,2476.89L8039.68,2487.7L8052.16,2471.83L8029.27,2481.49L8038.05,2464.38L8011.5,2469.34L8007.2,2459.88L7987.2,2461.96L8007.99,2447.91L7974.88,2440.68C8026.41,2450.42 8077.28,2459.36 8110.58,2447.1L8093.24,2444.67L8098.28,2430.58L8075.39,2438.42L8083.01,2420.09L8060.29,2429.2L8067.05,2404.49L8029.84,2427.67L8036.54,2402.54L8007.59,2416.82L8013.22,2393.12L7986.52,2382C8035.41,2392.87 8080.35,2395.36 8117.48,2381.27L8112.86,2369.38L8108.26,2377.35L8100.74,2358.89L8096.26,2372.47L8084.68,2351.96L8081.24,2373.2L8068.99,2357.1L8065.7,2370.09L8058.36,2357.67L8043.58,2369.61L8043.15,2352.36L8028.49,2365.14L8028.18,2353.5L8020.32,2360.62L8015.63,2353.89C8015.63,2353.89 8059.67,2339.32 8087.23,2333.45C8114.8,2327.58 8117.25,2324.21 8117.25,2324.21L8113.57,2316.02L8109.73,2322.03L8107.03,2317.26L8098.12,2323.95L8088.55,2314.25L8075.99,2324.45L8069.37,2313.64L8050.6,2317.93L8039.49,2310.21C8039.49,2310.21 8095.5,2308.35 8101.14,2304.22C8106.78,2300.1 8107.07,2294.57 8107.07,2294.57L8098.13,2297.19L8091.1,2294.76L8086.69,2302.27L8082.82,2294.64L8075.48,2301.47L8070.14,2292.44L8047.75,2289.08C8070.62,2287.39 8094.1,2286.07 8107.8,2278.87L8109.56,2263.22L8101.91,2273.46L8099.97,2262.91L8090.04,2275.41L8085.96,2262.31L8071.56,2276.13L8065.19,2265.28L8048.13,2274.67L8053.28,2264.94L8033.45,2265.3L8105.11,2251.23L8105.29,2235.26L8097.89,2247.42L8095.74,2235.3L8090.19,2245.8L8087.84,2236.01L8078.45,2242.94C8082.44,2237.54 8080.57,2234.94 8072.28,2235.44L8103.79,2226.07L8104.45,2219.42L8097.74,2219.43L8105.03,2212.25L8108.86,2202.34C8108.86,2202.34 8110.1,2200.05 8106.09,2197.05C8102.07,2194.04 8109.92,2191.03 8109.92,2191.03C8109.92,2191.03 8116.72,2187.82 8109.66,2185.22C8102.6,2182.63 8111.24,2172.73 8111.99,2171.21C8112.74,2169.7 8113.49,2174.47 8114.16,2176.12C8114.97,2178.11 8113.63,2182.25 8116.82,2183.16C8120.19,2184.13 8133.19,2180.92 8134.4,2181.91C8135.6,2182.9 8125.19,2186.93 8124.07,2189.11C8122.97,2191.26 8128.42,2193.47 8127.69,2194.99C8126.95,2196.53 8120.25,2196.69 8119.66,2198.29C8119.07,2199.89 8122.34,2202.73 8124.14,2204.61C8125.91,2206.46 8131.52,2208.47 8130.45,2209.58C8129.39,2210.69 8117.66,2209.91 8117.78,2211.28C8117.9,2212.65 8130.06,2216.14 8131.16,2217.79C8132.23,2219.41 8121.7,2221.2 8124.36,2221.2C8127.78,2221.2 8149.18,2217.4 8151.72,2217.79C8154.26,2218.19 8143.27,2222.39 8139.6,2223.58C8136.48,2224.58 8131.12,2224.03 8129.69,2224.91C8128.27,2225.79 8132,2228.06 8131.03,2228.88C8130.07,2229.7 8125.64,2228.73 8123.9,2229.84C8122.17,2230.95 8118.48,2234.41 8120.64,2235.54C8123.03,2236.79 8132.51,2236.37 8138.22,2237.33C8144.48,2238.38 8152.26,2241.3 8158.18,2241.85C8163.23,2242.31 8172.86,2240.01 8173.74,2240.59C8174.24,2240.91 8172.07,2242.12 8169.44,2243.24C8176.94,2245.8 8184.36,2248.12 8191.71,2250.17C8198.43,2250.71 8204.3,2251.6 8204.34,2252.26C8204.36,2252.46 8203.58,2252.69 8202.27,2252.93C8235.09,2260.93 8266.2,2262.98 8294.62,2255.7L8291.98,2243.32L8286.17,2250.77L8281.73,2231.52L8275.14,2244.57L8267.04,2222.82L8260.24,2243.63L8250.77,2226.21L8245.44,2238.81L8240.21,2225.6L8223.75,2235.87L8226.1,2218.61L8209.61,2229.75L8211.18,2218.1L8202.3,2224.33L8198.77,2217.09C8198.77,2217.09 8244.45,2207.43 8272.52,2204.63C8300.6,2201.83 8303.56,2198.74 8303.56,2198.74L8301.25,2190.16L8296.5,2195.73L8294.61,2190.67L8284.76,2196.36L8276.91,2185.62L8262.91,2194.4L8258.13,2182.88L8238.96,2185.09L8229.27,2176.15C8229.27,2176.15 8284.7,2180.5 8290.91,2177.01C8297.12,2173.52 8298.3,2168.03 8298.3,2168.03L8289.08,2169.65L8282.54,2166.46L8277,2173.46L8274.42,2165.41L8266.09,2171.42L8262.28,2161.82L8240.79,2155.97C8263.57,2156.83 8286.89,2158.12 8301.53,2152.45L8305.79,2137.02L8296.61,2146.4L8296.4,2135.65L8284.61,2147.03L8282.7,2133.51L8266.3,2145.69L8261.78,2134.17L8243.48,2141.64L8250.11,2132.5L8230.54,2130.66L8303.33,2124.57L8306.07,2108.65L8296.84,2119.96L8296.67,2107.63L8289.51,2117.49L8288.78,2107.46L8278.42,2113.34C8283.21,2108.39 8281.79,2105.6 8273.55,2105.17L8306.08,2099.31L8307.79,2092.75L8301.18,2092.02L8309.51,2085.66L8314.88,2076.2C8314.88,2076.2 8316.47,2074.05 8312.99,2070.61C8309.52,2067.16 8317.74,2065.03 8317.74,2065.03C8317.74,2065.03 8324.94,2062.57 8318.41,2059.2C8311.88,2055.83 8321.97,2046.91 8322.95,2045.48C8323.94,2044.05 8323.91,2048.89 8324.3,2050.61C8324.78,2052.69 8322.8,2056.68 8325.79,2057.94C8328.95,2059.28 8342.26,2057.51 8343.29,2058.64C8344.32,2059.76 8333.42,2062.63 8331.97,2064.68C8330.54,2066.71 8335.56,2069.51 8334.59,2070.95C8333.62,2072.4 8327,2071.82 8326.16,2073.35C8325.32,2074.89 8328.08,2078.08 8329.55,2080.16C8330.99,2082.19 8336.19,2084.82 8334.97,2085.81C8333.74,2086.8 8322.32,2084.73 8322.22,2086.11C8322.11,2087.49 8333.52,2092.31 8334.34,2094.09C8335.13,2095.82 8324.48,2096.44 8327.1,2096.73C8328.8,2096.92 8337.82,2096.66 8345,2096.43L8345,2100.46C8343.51,2100.6 8342.14,2100.71 8341.72,2100.8C8338.49,2101.45 8333.3,2100.3 8331.76,2101.03C8330.21,2101.75 8333.52,2104.43 8332.44,2105.14C8331.35,2105.86 8327.15,2104.39 8325.26,2105.31C8323.38,2106.22 8319.19,2109.27 8321.13,2110.63C8323.28,2112.14 8332.68,2112.78 8338.15,2114.37C8339.53,2114.77 8342.39,2115.28 8345,2115.85L8345,2127.7C8342.27,2127.64 8336.93,2124.34 8335.06,2125.18C8333.11,2126.05 8330.04,2132.38 8333.65,2132.92C8335.37,2133.18 8340.41,2133.14 8345,2132.95L8345,2144.98C8342.29,2144.84 8339.54,2144.88 8338.88,2145.19C8335.72,2146.68 8344.21,2156.35 8342.54,2156.94C8340.86,2157.53 8331.68,2148.98 8328.83,2148.72C8325.98,2148.47 8324.85,2153.31 8325.46,2155.41C8326.06,2157.51 8321.83,2157.14 8332.46,2161.3C8334.63,2162.15 8340.11,2162.58 8345,2162.74L8345,2185.2L8339.76,2185.09L8333.6,2191.84C8333.6,2191.84 8337.47,2198.03 8345,2202.55L8345,2238.86L8323.94,2238.31C8323.94,2238.31 8326.9,2246.23 8341.97,2248.36C8342.44,2248.42 8343.66,2248.48 8345,2248.53L8345,2325.02L8328.36,2322.45C8328.36,2322.45 8335.22,2328.35 8345,2332.87L8345,2356.84L8337.01,2355.01L8341.1,2365.11L8317.5,2354.92C8317.5,2354.92 8321.92,2367.75 8341.65,2373.9C8342.16,2374.06 8343.53,2374.22 8345,2374.37L8345,2541.07L8332.66,2539.02L8345,2549L8345,2557.65L8319.11,2553.65C8319.11,2553.65 8314.16,2574.14 8332.02,2576.2C8335.29,2576.58 8340.64,2577.33 8345,2578.32L8345,2622.18L8312.44,2618.21L8315.68,2621.11C8319.61,2622.31 8324.78,2623.76 8331.44,2625.49C8335.04,2626.43 8340.56,2627.27 8345,2628.02L8345,3133L6745,3133L6745,2516.49C6752.72,2515.85 6761.03,2515.21 6765.53,2515.71C6779.85,2517.32 6799.08,2515.38 6819.95,2511.54L6822.02,2505.05L6786.52,2509.88L6804.01,2501.6L6795.59,2496.02L6786,2494.84L6784.11,2505.28L6774.1,2493.38L6772.24,2493.15L6773.18,2506.44L6752.97,2503.74C6752.97,2503.74 6749.25,2503.84 6745,2504.03L6745,2396.13C6753.1,2401.2 6765.6,2406.34 6778.1,2407.14C6789.99,2407.91 6799.35,2405.64 6811.85,2402.04L6820.11,2382.39L6786.65,2393.53L6793.38,2376.23L6785.74,2373.91L6787.38,2390.91L6768.26,2380.87L6768.81,2394.78L6745,2385.81L6745,2299.71C6770.78,2300.63 6806.58,2293.85 6837.48,2284.4L6836.76,2283.75C6836.76,2283.75 6837.54,2283.83 6838.92,2283.96C6850.45,2280.41 6862.2,2276.49 6874.01,2272.48L6872.56,2269.1L6848.79,2262.26C6873.82,2263.76 6899.45,2265.73 6915.36,2259.98L6919.55,2243.43L6909.76,2253.32L6909.2,2241.72L6896.62,2253.7L6894.1,2239.06L6876.48,2251.8L6871.16,2239.25L6851.31,2246.86L6858.3,2237.16L6837.38,2234.76L6842.42,2248.25L6808.96,2236.66L6819.89,2263.7L6776.19,2243.42L6787.11,2269.98L6761.16,2263.22L6772.09,2282.54L6745,2280.06L6745,2229.71ZM8141.32,2993.35L7988.17,2979.18L7962.18,3018.47L7959.44,2959.56L7988.7,2976.24L7991.83,2957.54L8030.53,2969.44L8027.21,2959.78L8058.37,2963.56L8050.16,2956.5L8090.35,2952.46C8090.35,2952.46 8058.58,2950.12 8020.99,2949.53C7983.41,2948.95 7968.77,2927.01 7968.77,2927.01L8007.93,2936.32L7991.7,2920.62L8031.85,2925.33L8024.1,2915.68L8055.74,2917.06L8039.98,2904.79L8089.08,2910.05L8065.32,2904.3L8105.57,2903.75L8094.28,2900.8L8100.99,2887.65C8100.99,2887.65 8088.46,2899.44 8022.6,2895.47C7956.73,2891.49 8031.09,2889.66 8031.09,2889.66L8007.89,2876.06L8047.45,2876.38L8022.45,2870.41L8055.56,2867.7C8055.56,2867.7 8035.26,2860.71 8017.21,2861.39C7999.15,2862.07 8001.61,2847.35 8001.61,2847.35L8035.1,2847.51L8013.34,2835.66L8059.1,2837.09L8051.7,2822.67L8054.24,2822.25L8082.43,2822.94L8081.38,2828.17L8099.49,2823.35L8101.85,2823.41L8093.35,2836.26L8103.5,2830.74L8099.53,2843.18L8131.96,2832.45L8141.32,2993.35ZM7076.74,2995.94L7096.81,3002.42L7077.62,2981.78L7076.74,2995.94ZM8213.66,2928.26L8191.54,2998L8165.72,2995.61L8153.6,2828.43L8184.01,2853.69L8186.12,2827.38L8222.26,2844.73L8213.66,2928.26ZM7042.78,2984.98L7053.17,2988.33L7053.58,2982.96L7042.78,2984.98ZM7023.09,2947.64L7015.06,2919.58L7017.75,2923.16L7036.87,2912.76L7038.51,2922.79L7060.9,2914.62L7052.27,2936.02C7045.23,2940.36 7035.4,2944.22 7023.09,2947.64ZM6881.95,2903.68L6884.89,2856.26L6914.17,2887.76L6920.29,2859.83L6950.94,2879.76L6906.31,2896.05L6947.28,2890.11L6943.54,2895.74L6881.95,2903.68ZM6959.23,2877.03L6973.17,2875.98L6958.31,2870.53L6959.23,2877.03ZM6848.75,2859.71L6859.45,2875.82L6860.86,2857.45L6848.75,2859.71ZM6986.64,2874.96L7024.07,2872.13L6983.66,2870.23L6986.64,2874.96ZM7026.55,2871.95C7022.11,2870.65 7006.14,2866.09 6984.9,2860.88C6994.29,2856.23 7007.87,2849.8 7012.02,2849.33C7018.57,2848.59 7006.56,2863.07 7006.56,2863.07C7006.56,2863.07 7026.22,2850.44 7032.78,2848.59C7039.33,2846.73 7030.59,2861.21 7030.59,2861.21L7062.28,2845.99L7056.53,2869.68L7026.55,2871.95ZM6967.51,2856.77L6986.35,2849.33L6979.5,2859.57C6975.64,2858.65 6971.63,2857.71 6967.51,2856.77ZM6920.07,2837.09L6959.58,2839.67L6952.26,2853.41C6938.46,2850.34 6927.94,2844.03 6920.07,2837.09ZM8223.08,2836.77L8223.48,2832.89L8221.9,2832.54L8223.08,2836.77ZM6930.87,2825.31C6923.46,2826.35 6917.02,2827.27 6911.42,2828.08C6902.98,2817.74 6899.75,2808.42 6899.75,2808.42L6930.87,2825.31ZM6990.4,2803.83L7000,2801.04L6999.45,2812.56L7016.46,2801.66L7018,2802.19L7015.3,2811.07L7036.05,2808.47C7036.05,2808.47 7071.56,2803.27 7043.16,2816.64C7015.64,2829.59 6993.77,2817.46 6937.32,2824.44L6925.53,2803.37L6968.36,2818.82L6965.09,2811.17L6979.36,2807.03L6995.45,2811.1L6990.4,2803.83ZM6802.01,2789.33L6813.01,2781.68L6825.02,2797.65L6844.14,2787.25L6845.78,2797.28L6868.18,2789.11L6859.55,2810.5C6851.46,2815.49 6839.73,2819.83 6824.78,2823.61L6802.01,2789.33ZM8101.88,2822.72L8102.17,2822.93L8102.4,2822.58L8101.88,2822.72ZM8248.28,2819.16L8248.99,2816.89L8278.17,2764.87L8253.54,2759.83L8248.28,2819.16ZM8220.7,2776.28L8229.78,2771.63L8224.96,2818.5C8221.71,2818.21 8218.41,2817.93 8215.06,2817.67C8191.3,2815.83 8176.16,2802.61 8168.16,2793L8183.97,2791.61L8201.15,2798.22L8195.48,2790.59L8203.17,2789.91L8197.98,2781.28L8211.6,2781.13L8224.64,2783.98L8220.08,2776.28L8220.7,2776.28ZM6963.87,2808.33L6968.19,2804.21L6961.37,2802.48L6963.87,2808.33ZM8126.82,2782.37C8080.22,2785.45 8072.98,2781.37 8072.98,2781.37L8068.81,2778.58L8073.79,2773.97C8077.55,2774.28 8081.54,2774.59 8085.03,2774.82L8092.12,2782.08L8108.16,2770.22L8110.88,2779.2L8130.18,2768.99L8126.82,2782.37ZM8185.23,2776.82L8183.92,2775.06L8189.56,2776.3C8188.16,2776.47 8186.71,2776.64 8185.23,2776.82ZM6979.37,2744.59L6975.42,2750.16L7013.11,2744.96L7017.48,2762.79L7034.96,2751.64L7037.69,2766.13L7049.71,2752.39L7048.62,2767.24L7068.83,2764.64C7068.83,2764.64 7114.72,2769.84 7056.27,2776.16C7053.72,2776.43 7051.01,2776.6 7048.17,2776.67L7048.77,2775.44C7048.77,2775.44 7048.25,2775.96 7046.98,2776.69C7022.17,2777.04 6987.36,2770.13 6954.33,2761.64C6963.71,2762.76 6972.73,2764.15 6972.73,2764.15L6954.52,2744.06L6966.76,2742.06L6979.37,2744.59ZM8217.7,2772.26L8216.29,2769.88L8225.06,2770.9C8222.95,2771.32 8220.52,2771.77 8217.7,2772.26ZM8278.44,2764.38L8282.58,2756.99L8257.18,2756.07L8278.44,2764.38ZM6776.41,2750.77L6768.84,2739.38L6768.43,2733.77L6773.33,2731.83L6786.55,2734.39L6782.69,2740.16C6782.69,2740.16 6786.65,2738.1 6792.01,2735.45L6804.92,2737.95L6801.63,2730.8C6803.63,2729.86 6805.63,2728.94 6807.54,2728.09L6810.61,2729.3L6809.03,2727.44C6813.55,2725.48 6817.4,2724.03 6819.29,2723.82C6825.85,2723.07 6813.83,2737.56 6813.83,2737.56C6813.83,2737.56 6833.49,2724.93 6840.05,2723.07C6846.61,2721.22 6837.86,2735.7 6837.86,2735.7L6869.55,2720.47L6866.04,2734.97C6860.54,2733.08 6857.43,2731.96 6857.43,2731.96L6865.66,2736.54L6863.81,2744.17L6776.41,2750.77ZM8304.63,2717.67L8287.86,2747.58L8292.18,2734.47C8292.18,2734.47 8285.59,2743.29 8254.94,2744.02L8258.32,2705.93L8284.2,2734.51L8290.5,2708.49L8304.63,2717.67ZM8203.44,2713.22L8202.74,2714.65L8208.06,2713.52L8235.58,2715.37L8232.7,2743.29C8226.91,2742.82 8220.57,2742.13 8213.64,2741.16C8147.06,2731.83 8221.87,2733.4 8221.87,2733.4L8197.73,2712.83L8203.44,2713.22ZM8060.97,2741.11L8054.31,2742.52C8053.52,2741.34 8053.37,2740.46 8053.37,2740.46L8060.97,2741.11ZM6979.18,2740.02L6981.66,2741.37L6983.07,2739.39L6979.18,2740.02ZM8074.05,2738.32L8099.64,2732.87L8074.48,2732.57L8074.05,2738.32ZM6967.05,2733.43L6966.18,2732.95L6971.18,2733.32C6969.81,2733.36 6968.43,2733.39 6967.05,2733.43ZM6952.33,2694.49L6954.12,2697.05L6958.5,2695.7L6974.27,2698.8L6971.05,2714.87L6996.72,2700.39L6996.72,2717.47L7016.94,2702.62L7030.59,2718.96L7031.68,2706.7L7038.79,2718.22L7071.02,2718.96C7051.12,2726.59 7025.52,2730.34 6997.08,2732.16C6989.59,2727.6 6975.39,2719.94 6961.81,2718.09C6942.14,2715.42 6946.95,2693.43 6946.95,2693.43L6952.33,2694.49ZM8097.23,2727.76L8106.97,2731.31L8120.69,2728.39L8120.9,2726.24L8097.23,2727.76ZM8115.61,2723.54L8121.16,2723.68L8121.28,2722.55L8115.61,2723.54ZM8000.68,2714.66L8029.11,2712.74L8026.18,2720.73C8016.08,2721.1 8007.43,2721.17 8002.32,2720.69C7993.55,2719.87 7987.45,2717.86 7983.34,2715.84L8000.6,2714.67L8000.7,2714.69L8000.68,2714.66ZM8052.74,2719.34L8054.11,2719.25L8054.56,2718.31L8052.74,2719.34ZM8079.7,2717.41C8077.26,2717.6 8074.65,2717.8 8071.94,2718C8074.49,2716.54 8076.6,2715.5 8077.83,2715.18C8079.59,2714.74 8080,2715.76 8079.7,2717.41ZM8098.73,2715.85C8097.21,2715.98 8093.86,2716.27 8089.26,2716.65C8092.16,2714.51 8094.84,2712.72 8096.56,2711.97C8099.09,2710.87 8099.29,2713.06 8098.73,2715.85ZM8109.45,2714.97L8122.97,2706L8122.2,2713.57C8117.39,2714.17 8113.03,2714.63 8109.45,2714.97ZM8223.85,2710.19L8235.64,2714.74L8236.38,2707.54L8223.85,2710.19ZM8332.28,2668.37L8314.28,2700.47C8282.5,2691.01 8273.11,2661.26 8273.11,2661.26L8309.98,2681.05L8296.75,2656.03L8332.28,2668.37ZM6811.22,2697.36C6825.82,2697.76 6837.5,2697.22 6850.43,2691.13C6878.83,2677.76 6843.33,2682.96 6843.33,2682.96L6822.57,2685.56L6825.85,2674.79L6806.73,2687.05L6807.27,2675.53L6774.7,2684.98C6783.76,2689.68 6796.05,2693.78 6811.22,2697.36ZM8109.75,2675.62C8090.38,2682.32 8040.51,2691.36 8018.41,2693.45C7994.12,2695.74 7982.83,2686.76 7982.83,2686.76L8013.13,2687.16L8004.63,2680.91L8031.54,2680.5L8025.32,2688.32L8057.63,2673.95L8061.13,2673.99L8061.92,2683.05L8077.74,2669.5L8076.09,2679.76L8094.59,2674.85C8094.59,2674.85 8116.7,2668.48 8109.75,2675.62ZM6973.94,2690.98L6975.52,2692.6L6975.97,2690.36L6973.94,2690.98ZM8103.85,2680.25C8103.29,2680.64 8102.68,2681.05 8102.03,2681.47C8098.71,2683.63 8095.43,2685.31 8092.11,2686.65L8092.1,2686.65C8092.1,2686.65 8097.82,2683.56 8103.85,2680.25ZM6783.4,2667.58L6783.29,2668.25L6782.18,2667.83L6765.36,2671.25L6769.53,2682.01C6770.01,2682.32 6770.51,2682.62 6771.02,2682.93L6788.15,2666.62L6783.4,2667.58ZM8215.72,2673.43C8208.46,2675.91 8200.08,2678.22 8190.68,2680.36C8189.47,2675.85 8189.8,2671.81 8189.8,2671.81L8215.72,2673.43ZM8032.68,2679.07L8036.95,2673.69L8027.43,2673.57L8032.68,2679.07ZM7004.68,2665.41L7004.63,2665.2L7033.57,2671.71C7024.46,2670.99 7015.95,2668.57 7004.68,2665.41ZM8220.69,2671.64L8200.96,2655.91L8238.26,2659.61L8236.4,2664.04C8232.19,2666.73 8226.93,2669.26 8220.69,2671.64ZM7064.36,2664.42C7061.62,2666.4 7058.42,2668.2 7054.73,2669.53C7052.32,2665.41 7050.68,2661.47 7054.01,2662.53C7055.68,2663.06 7059.54,2663.72 7064.36,2664.42ZM8333.85,2665.57L8338.85,2656.66L8329.44,2654.45L8333.85,2665.57ZM6848.41,2651.14L6851.03,2645.84L6875.44,2649.18C6872.06,2649.66 6868.12,2650.15 6863.54,2650.65C6858.96,2651.14 6853.88,2651.29 6848.41,2651.14ZM8241.18,2645.44L8242.66,2649.17L8244.82,2644.02L8241.18,2645.44ZM6877.77,2639.34C6880.98,2639.77 6887.95,2640.83 6891.33,2642.33C6894.7,2643.82 6894.47,2645.75 6883.25,2647.9L6877.77,2639.34ZM8091.65,2645.44C8098.03,2642.01 8105.82,2638.73 8105.82,2638.73C8105.82,2638.73 8094.3,2641.83 8083.06,2645.94C8063.17,2646.68 8039.21,2644.86 8015.96,2642.09L8015.94,2642.07L8050.25,2642.31L8042.68,2634L8071.66,2634.09L8072.13,2635.3L8073.54,2634.1L8079.39,2634.12L8074.69,2633.11L8086.6,2622.97L8090.86,2635.89L8100.06,2621.85L8100.9,2635.58L8118.9,2630.74C8118.9,2630.74 8161.13,2629.9 8108.93,2642.81C8103.86,2644.06 8098.04,2644.92 8091.65,2645.44ZM8033.98,2625.91C8015.58,2630.26 7997.77,2633.83 7987.44,2634.04C7972.15,2634.34 7968.24,2629.23 7968.24,2629.23L7998.89,2626.28L7993.16,2619.34L8011.91,2626.09L8038.06,2618.07L8033.98,2625.91ZM8050.33,2627.91L8070.97,2632.32L8068.47,2625.91L8050.33,2627.91ZM8057.41,2586.93L8064.23,2580.28L8078.62,2593.58L8078.1,2582.22L8085.95,2591.9L8115.26,2588.65C8091.65,2601.64 8057.3,2609.19 8019.63,2615.07L8012.15,2610.89L8036.38,2611.13L8029.11,2605.1L8049.89,2603.67L8040.35,2598.73L8065.27,2598.1L8055.94,2594.69L8062.29,2584.89C8062.29,2584.89 8060.52,2585.67 8057.41,2586.93ZM6785.82,2614.62L6789.6,2614.91L6790.34,2613.88L6785.82,2614.62ZM7038.09,2596.8L7039.86,2597.34C7040.48,2597.53 7041.1,2597.72 7041.72,2597.9L7043.19,2598.34L7039.33,2606.42C7039.33,2606.42 7073.61,2613.87 7070.47,2614.22C7065.69,2614.74 7059.71,2614.64 7052.96,2614.11C7036.96,2610.5 7033.91,2607.26 7033.91,2607.26L7029.25,2601.47L7038.09,2596.8ZM6764.13,2608.12C6781.74,2607.85 6798.84,2607.22 6814.86,2605.87C6812.09,2604.04 6795.04,2592.83 6789.02,2591.05C6782.47,2589.12 6791.21,2604.19 6791.21,2604.19L6759.52,2588.35L6764.13,2608.12ZM6836.24,2603.51C6826.88,2598.7 6813.84,2592.31 6809.78,2591.83C6803.74,2591.12 6813.46,2603.84 6815.03,2605.86C6822.34,2605.24 6829.43,2604.47 6836.24,2603.51ZM8025.43,2576.5L8024.15,2597.1L8045.63,2580.71L8047,2590.9C8036.57,2594.68 8021.91,2599.41 8006.58,2602.5C7977.53,2608.35 7972.24,2596.03 7972.24,2596.03L7977.57,2590.65L8005.85,2588.01L8000.69,2582.68L8006.28,2582.48L8006.6,2582.84L8007.47,2582.44L8020.36,2581.98L8015.4,2578.77L8020.01,2576.64L8025.43,2576.5ZM6842.36,2602.58L6835.45,2591.83L6837.07,2592.49L6837.86,2593.45L6837.92,2592.84L6855.55,2600.09C6851.3,2601.02 6846.9,2601.85 6842.36,2602.58ZM7026.11,2593.07C7027.25,2593.43 7028.56,2593.84 7029.98,2594.29L7027.72,2599.57L7023.19,2593.94L7026.11,2593.07ZM6868.07,2593.21L6878.29,2593.45C6875.53,2594.5 6872.67,2595.48 6869.71,2596.39L6868.07,2593.21ZM7975.91,2570.89L7971.6,2573.7L7977.2,2574.97C7973.22,2575.34 7969.77,2575.44 7967.41,2575.1C7956.31,2573.48 7960.57,2573.23 7959.72,2571.86C7958.86,2570.48 7959.4,2567.01 7962.27,2566.85C7964.77,2566.71 7972.81,2570.34 7975.91,2570.89ZM7990.37,2573.17L7995.37,2570.51L7996.76,2572.03C7994.69,2572.42 7992.53,2572.81 7990.37,2573.17ZM7988.41,2562.74L7976.91,2570.24C7975.69,2568.55 7969.38,2564.4 7971.86,2563.23C7973.89,2562.27 7982.24,2562.65 7988.41,2562.74ZM7995.83,2557.89L7992.5,2560.07C7991.07,2559.31 7989.94,2558.6 7991.36,2558.27C7992.19,2558.08 7993.8,2557.96 7995.83,2557.89ZM7058.92,2536.34L7049.71,2552L7075.66,2546.9L7070.76,2556.28C7058.52,2557.8 7047.69,2558.61 7041.34,2557.94C7019.05,2555.56 7018.62,2540.7 7018.62,2540.7L7040.47,2547.54L7041.88,2538.13L7053.5,2535.22L7058.92,2536.34ZM7985.47,2546.85L7995.9,2548.28L7969.22,2555.03C7967.56,2555.24 7966.18,2555.37 7965.16,2555.38C7961.5,2555.43 7963.8,2550.7 7965.63,2549.87C7967.47,2549.04 7973.63,2550.87 7976.19,2550.4C7978.68,2549.93 7978.53,2547.6 7980.98,2547.03C7982.14,2546.76 7983.74,2546.79 7985.47,2546.85ZM6854.61,2545.89L6840.92,2532.33L6871.73,2538.84C6867.28,2542.07 6861.62,2544.83 6854.61,2545.89ZM6821.84,2542.62L6821.8,2541.6L6834.45,2545.42C6830.39,2544.76 6826.29,2543.8 6821.84,2542.62ZM8256.78,2513.84L8256.79,2513.26L8259.06,2513.43C8258.34,2513.57 8257.58,2513.7 8256.78,2513.84ZM6967.04,2481.78L6988.94,2494.43L6985.23,2503.97C6977.2,2502.73 6970.48,2501.4 6966.18,2499.99C6961.6,2498.5 6957.75,2496.71 6954.53,2494.8L6947.78,2482.74L6965.3,2490.49L6960.49,2479.49L6967.04,2481.78ZM6805.4,2497.22L6804.41,2501.41L6811.65,2497.99L6805.4,2497.22ZM6990.64,2488.24L6979.28,2475.03L7039.59,2491.68L7013.37,2470.88L7025.32,2473.09L7025.26,2473.58L7025.9,2473.2L7061.44,2479.79L7050.54,2473.9L7051.74,2470.93L7058.9,2471.28L7065.55,2482.87L7068.95,2471.77L7077.06,2472.16L7081.94,2484.26L7088.77,2470.33L7094.23,2491.22L7100.37,2483.33L7103.65,2496.76C7069.42,2504.66 7031.22,2500.17 6990.64,2488.24ZM8180.63,2491.8L8205.64,2487.73L8206.94,2493.78C8197.01,2493.73 8188.5,2493.34 8183.41,2492.39C8182.45,2492.21 8181.53,2492.02 8180.63,2491.8ZM8225.25,2493.57L8225.41,2493.56L8225.39,2493.47L8225.25,2493.57ZM6772.13,2491.56L6772.52,2491.5L6772.09,2490.99L6772.13,2491.56ZM8165.69,2485.6L8178.4,2483.2L8173.76,2489.69C8170.58,2488.46 8167.91,2487.04 8165.69,2485.6ZM6845.19,2486.92L6838.73,2477.46L6847.53,2478.96L6846.61,2480.91C6846.61,2480.91 6880.89,2488.36 6877.74,2488.7C6869.65,2489.6 6858.09,2488.69 6845.19,2486.92ZM8070.12,2481.02L8076.93,2476.11L8074.88,2482.58C8073.09,2482 8071.5,2481.47 8070.12,2481.02ZM8162.1,2478.1L8160.1,2478.19L8157.56,2478.3C8156.65,2477.12 8156.25,2476.38 8156.25,2476.38L8162.1,2478.1ZM8177.51,2477.26L8175.74,2474.32L8186.69,2476.6C8183.65,2476.84 8180.6,2477.06 8177.51,2477.26ZM8200.43,2475.32L8192.22,2467.95L8222.92,2472.21C8215.74,2473.46 8208.22,2474.48 8200.43,2475.32ZM7046.86,2471.91L7046.34,2470.67L7044.4,2470.58L7046.86,2471.91ZM6845.91,2471C6847.68,2471.06 6849.46,2471.12 6851.25,2471.17L6853.16,2467.16L6845.91,2471ZM6825.27,2469.98C6828.96,2470.22 6832.69,2470.43 6836.46,2470.61L6838.41,2466.05L6825.27,2469.98ZM6796.37,2449.79L6791.21,2456.21L6790.68,2450.07L6786.06,2450.31L6783.01,2455.44L6750.78,2456.21C6768.68,2463.34 6791.18,2467.22 6816.21,2469.31L6826.94,2458.99L6800.72,2466.05L6812.74,2448.96L6796.37,2449.79ZM8228.51,2460.29L8229.74,2462.4L8259.11,2462.4C8252.61,2465.06 8245.48,2467.27 8237.81,2469.14L8222.63,2460L8222.63,2459.98L8228.51,2460.29ZM7072.24,2464.38L7071.01,2465.04L7070.39,2467.07L7075.71,2468.83L7073.62,2463.64L7072.24,2464.38ZM7069.51,2428.26L7082.07,2420.67L7091.02,2432.46L7101.65,2426.57L7103.89,2432.08L7108.92,2426.18L7111.72,2435.5C7111.72,2435.5 7108.57,2438.76 7077.84,2441.08C7047.11,2443.4 6997.27,2452.69 6997.27,2452.69L7001.36,2460.58L7010.92,2454.08L7010.08,2461.8C7001.35,2462.03 6993.53,2461.99 6987.59,2461.66C6960.93,2460.18 6950.01,2444.13 6950.01,2444.13L6982.78,2450.97L6974.48,2439.68L7006.38,2445.02L7000.26,2433.14L7041.78,2441.76L7022.55,2424.82L7066.95,2429.77L7066.97,2429.8L7067.01,2429.77L7075.86,2430.76L7069.51,2428.26ZM7017.28,2461.57L7027.31,2455.01L7026.64,2461.12C7023.47,2461.29 7020.34,2461.44 7017.28,2461.57ZM8180.65,2453.34L8191.86,2446.76L8191.63,2454.85C8187.54,2454.72 8183.88,2454.16 8180.65,2453.34ZM8202.42,2454.29L8210.23,2448.39L8213.8,2452.81C8209.66,2453.43 8205.82,2453.93 8202.42,2454.29ZM8171.83,2443.96L8170.59,2449.53C8164.76,2446.47 8161.88,2443.23 8161.88,2443.23L8171.83,2443.96ZM6874.67,2423.01L6867.68,2433.41L6845.83,2426.46L6848.71,2441.38C6865.28,2443.63 6880.55,2443.82 6893.86,2440.89L6875.42,2435.78L6882.93,2421.39L6874.67,2423.01ZM6825.07,2437.07L6825.56,2437.18L6825.07,2436.89L6825.07,2437.07ZM7065.6,2426.73L7062.65,2420.1L7047.9,2419.77L7065.6,2426.73ZM8225.25,2416.7L8247.2,2416.23C8243.77,2417.76 8239.85,2418.87 8235.43,2419.25C8233.34,2419.43 8231.34,2419.5 8229.38,2419.49L8225.25,2416.7ZM7064.83,2412.11C7064.32,2411.31 7064.3,2410.49 7064.94,2409.66C7067.14,2406.82 7073.55,2403.38 7079.37,2400.66L7081.79,2407.55L7087.66,2400.13L7094.94,2403.74L7105.01,2402.22C7105.01,2402.22 7103.89,2408.12 7097.17,2411.73C7094.1,2413.39 7079.61,2413.01 7064.83,2412.11ZM7068.14,2401.28C7061.13,2403.31 7053.79,2405.85 7048.33,2408.77C7046.98,2409.5 7045.39,2410.08 7043.62,2410.54C7035.34,2409.84 7029.49,2409.26 7029.49,2409.26L7032.5,2411.99C7014.87,2412.68 6992.4,2408.18 6992.4,2408.18L6967.92,2387.38L7000.26,2394.81L6992.4,2382.62L7029.54,2390.05L7022.55,2375.79L7062.32,2383.52L7031.73,2368.07L7046.77,2368.57L7044.03,2372.37L7053.37,2368.79L7065.78,2369.21L7069.21,2377.31L7086.83,2364.57L7089.34,2379.21L7101.93,2367.23L7102.49,2378.83L7112.28,2368.94L7108.08,2385.49C7092.18,2391.24 7066.55,2389.27 7041.52,2387.77L7065.29,2394.62L7068.14,2401.28ZM8247.6,2408.99L8259.39,2407.68C8258.29,2408.79 8257.07,2409.92 8255.71,2411.01L8247.6,2408.99ZM8209.68,2382.87L8204.68,2397.59L8229.28,2389.79L8227.42,2404.5C8212.55,2406.25 8195.87,2405.15 8195.87,2405.15L8171.13,2389.09L8201.35,2391.95L8194.72,2384.11L8204.54,2382.53L8209.68,2382.87ZM8228.52,2404.37L8245.05,2395.62L8244.74,2400.06C8240.69,2402.23 8234.81,2403.57 8228.52,2404.37ZM8261.94,2399.82L8266.89,2397.53C8266.89,2397.53 8266.11,2399.16 8264.47,2401.53C8263.32,2401.03 8262.43,2400.46 8261.94,2399.82ZM6842.12,2393.69C6845.16,2392.95 6848.37,2392.2 6851.78,2391.46L6852.89,2388.89L6842.12,2393.69ZM6807.4,2365.39C6844.44,2375.28 6879.37,2378.53 6910.93,2371.24L6907.65,2357.82L6901.5,2365.71L6896.04,2344.82L6889.21,2358.74L6879.65,2335.07L6872.82,2357.35L6861.9,2338.32L6857.06,2350.24L6862.77,2351.12L6817.43,2356.91L6842.56,2369.28L6807.05,2364.25L6807.4,2365.39ZM8164.28,2359.26L8187.95,2365.49C8178.21,2367.64 8169.63,2368.95 8163.56,2368.78C8148.18,2368.36 8143.95,2360.9 8143.95,2360.9L8164.28,2359.26ZM7061.29,2365.76L7065.34,2368.18L7063.89,2364.76L7061.29,2365.76ZM8226.58,2363.63L8246.98,2361.59C8254.85,2363.27 8262.84,2365.1 8261.32,2365.31C8252.92,2366.44 8240.52,2365.52 8226.92,2363.75L8226.58,2363.63ZM8196.07,2344.64L8215.77,2338.83L8200.94,2353.28L8226.05,2345.13L8221.27,2355.91L8239.47,2345.85L8236.47,2351.95C8236.29,2352.01 8236.11,2352.07 8235.92,2352.13C8226.66,2355.03 8216.61,2358.08 8206.83,2360.76C8194.75,2358.8 8182.77,2356.64 8172.61,2355.04L8168.45,2348.19L8199.39,2347.35L8196.07,2344.64ZM6841.27,2342.82L6834.63,2346.81L6855.69,2350.03L6851.36,2339.88L6841.27,2342.82ZM6805.06,2328.16L6790.66,2323.68L6795.58,2335.66L6775.91,2324.84L6782.47,2339.14C6782.47,2339.14 6748.19,2346.89 6751.33,2347.25C6766.04,2348.94 6792.17,2344.44 6816.99,2339.64L6817.81,2332.13L6814.48,2331.1L6808.64,2335.07L6805.06,2328.16ZM6829.99,2346.1L6832.71,2346.51L6832.85,2345.26L6829.99,2346.1ZM8193.87,2342.85L8197.25,2338.07L8187.16,2337.37L8193.87,2342.85ZM6819.95,2339.06C6824.67,2338.14 6829.33,2337.22 6833.83,2336.33L6834.59,2329.5L6819.95,2339.06ZM6815.91,2330.12L6817.82,2332.03L6818.2,2328.57L6815.91,2330.12ZM8163.81,2305.8L8176.14,2310.07L8153.42,2321.78L8173.45,2321.92L8174.64,2326.31C8151.23,2329.14 8146.12,2314.08 8146.12,2314.08L8151.19,2306.76L8163.81,2305.8ZM6811.68,2325.89L6802.13,2316.34L6826.91,2323.28C6820.83,2324.29 6815.57,2325.2 6811.68,2325.89ZM8214.87,2285.71L8241.25,2273.29L8230.62,2297.19L8254.45,2290.62L8244.01,2308.07L8267.8,2302.78L8260.58,2316.28L8277.25,2320.63C8265.36,2323.55 8251.86,2323.77 8237.26,2322.18L8239.97,2322.23L8230.38,2316.88L8236.22,2303.35C8236.22,2303.35 8224.1,2310.36 8207.24,2316.95C8193.8,2313.89 8179.83,2309.95 8165.65,2305.66L8179.53,2304.61L8174.04,2296.76L8193.81,2296.87L8185.51,2289.13L8202.13,2289.47L8200.9,2292.29L8206.7,2289.56L8219.48,2289.82L8214.87,2285.71ZM6827.96,2323.11C6845.02,2320.3 6868.02,2316.86 6885.11,2315.57C6915.84,2313.25 6918.99,2309.99 6918.99,2309.99L6916.19,2300.67L6911.16,2306.57L6908.92,2301.05L6898.29,2306.95L6889.34,2295.16L6874.24,2304.29L6870.37,2295.6L6849.11,2296.25L6845.83,2307.46L6816.34,2305.91L6827.96,2323.11ZM6864.34,2292.12L6870.14,2295.09L6868.65,2291.73L6864.34,2292.12ZM6753.65,2292.2L6745,2293.13L6745,2280.43L6753.65,2292.2ZM6846.52,2283.02L6874.1,2272.69L6877.04,2279.56L6885.99,2273.29L6889.07,2282.04L6894.94,2274.62L6902.21,2278.23L6912.28,2276.71C6912.28,2276.71 6911.16,2282.61 6904.45,2286.22C6899.77,2288.74 6868.74,2286.55 6850.36,2284.99L6846.52,2283.02ZM8187.66,2261.97L8180.79,2278.87C8170.22,2281.49 8148.48,2286.33 8140.08,2284.16C8128.8,2281.24 8133.09,2281.13 8132.15,2279.13C8131.21,2277.14 8131.56,2272.24 8134.44,2272.18C8137.32,2272.12 8147.86,2279.51 8149.44,2278.75C8151.01,2277.98 8140.99,2269.41 8143.9,2267.58C8146.82,2265.76 8163.69,2268.8 8166.92,2267.81C8170.06,2266.85 8160.08,2262.52 8163.27,2261.66C8166.55,2260.76 8182.42,2262.21 8187.66,2261.97ZM8181.76,2278.63L8211.53,2267.95L8205.91,2280.83L8186.75,2277.33C8186.75,2277.33 8184.83,2277.86 8181.76,2278.63ZM8188.01,2254.78L8190.09,2255.97L8188.1,2260.88C8184.76,2259.69 8175.99,2257.84 8177.92,2256.64C8178.91,2256.02 8183.18,2255.39 8188.01,2254.78ZM8168.55,2243.61L8179.19,2249.72C8178.56,2249.73 8177.97,2249.75 8177.4,2249.79C8166.12,2250.43 8143.46,2256.34 8136.71,2256.09C8133.02,2255.95 8135.07,2249.39 8136.87,2248.31C8138.68,2247.24 8144.99,2250.18 8147.54,2249.65C8150.02,2249.13 8149.74,2245.81 8152.18,2245.15C8154.83,2244.42 8159.89,2246.05 8163.49,2245.29C8164.84,2245 8166.74,2244.35 8168.55,2243.61ZM6745,2168.41C6776.44,2171.54 6824.53,2179.22 6824.53,2179.22L6820.43,2187.43L6810.87,2180.67L6812.24,2193.71L6794.49,2181.64L6796.53,2200.95L6778.78,2189.85L6772.64,2204.82L6767.17,2190.81L6756.25,2210.61L6749.42,2187.43L6745.5,2197.52L6745,2195.31L6745,2168.41ZM6745,2137.46C6764.91,2136.52 6792.31,2134.05 6792.31,2134.05L6781.4,2144.33L6760.42,2142.36L6754.83,2155.41L6745,2151.08L6745,2137.46ZM6745,2113.29C6755.7,2113.1 6769.66,2112.35 6780.28,2111.69L6756.51,2118.81L6752.03,2129.69L6745,2126.51L6745,2113.29ZM6745,2080.3L6792.31,2083.01L6770.77,2085.58L6777.77,2095.67L6757.91,2087.76L6752.59,2100.81L6745,2097.15L6745,2080.3Z" style="fill:rgb(29,29,29);"/>
            </g>
        </g>
    </g>
</svg>
