<?xml version="1.0" encoding="UTF-8" standalone="no"?>
<!DOCTYPE svg PUBLIC "-//W3C//DTD SVG 1.1//EN" "http://www.w3.org/Graphics/SVG/1.1/DTD/svg11.dtd">
<svg width="100%" height="100%" viewBox="0 0 1080 1080" version="1.1" xmlns="http://www.w3.org/2000/svg" xmlns:xlink="http://www.w3.org/1999/xlink" xml:space="preserve" xmlns:serif="http://www.serif.com/" style="fill-rule:evenodd;clip-rule:evenodd;stroke-linejoin:round;stroke-miterlimit:2;">
    <g id="Cut">
        <path id="BG" d="M1057.49,280.051C1045.12,233.662 1008.52,197.066 961.963,184.524C877.776,162.017 539.997,162.017 539.997,162.017C539.997,162.017 202.39,162.017 118.031,184.524C71.642,196.895 35.046,233.49 22.504,280.051C-0.003,364.238 -0.003,540 -0.003,540C-0.003,540 -0.003,715.762 22.504,799.949C34.875,846.338 71.47,882.934 118.031,895.476C202.39,917.983 539.997,917.983 539.997,917.983C539.997,917.983 877.776,917.983 961.963,895.476C1008.35,883.105 1044.95,846.51 1057.49,799.949C1080,715.762 1080,540 1080,540C1080,540 1080,364.238 1057.49,280.051ZM432.1,702.017L712.666,540L432.1,377.983L432.1,702.017Z" style="fill:rgb(255,243,0);"/>
    </g>
</svg>
