<?xml version="1.0" encoding="UTF-8" standalone="no"?><!DOCTYPE svg PUBLIC "-//W3C//DTD SVG 1.1//EN" "http://www.w3.org/Graphics/SVG/1.1/DTD/svg11.dtd"><svg width="100%" height="100%" viewBox="0 0 1080 1080" version="1.1" xmlns="http://www.w3.org/2000/svg" xmlns:xlink="http://www.w3.org/1999/xlink" xml:space="preserve" xmlns:serif="http://www.serif.com/" style="fill-rule:evenodd;clip-rule:evenodd;stroke-linejoin:round;stroke-miterlimit:2;"><g id="Cut"><path id="BG" d="M1057.49,280.051c-12.371,-46.389 -48.966,-82.985 -95.527,-95.527c-84.187,-22.507 -421.966,-22.507 -421.966,-22.507c0,0 -337.607,0 -421.966,22.507c-46.389,12.371 -82.985,48.966 -95.527,95.527c-22.507,84.187 -22.507,259.949 -22.507,259.949c0,0 0,175.762 22.507,259.949c12.371,46.389 48.966,82.985 95.527,95.527c84.359,22.507 421.966,22.507 421.966,22.507c0,-0 337.779,-0 421.966,-22.507c46.389,-12.371 82.985,-48.966 95.527,-95.527c22.507,-84.187 22.507,-259.949 22.507,-259.949c0,0 0,-175.762 -22.507,-259.949Zm-625.39,421.966l280.566,-162.017l-280.566,-162.017l0,324.034Z" style="fill:#fff;"/><path d="M355.924,164.973c-93.704,2.859 -196.411,8.485 -237.89,19.551c-46.389,12.371 -82.985,48.966 -95.527,95.527c-22.507,84.187 -22.507,259.949 -22.507,259.949c-0,0 -0,127.526 13.911,217.358l342.013,-592.385Z" style="fill:#fff;"/><path d="M355.924,164.973l-342.013,592.385c2.419,15.627 5.261,30.115 8.596,42.591c12.371,46.389 48.966,82.985 95.527,95.527c36.215,9.662 119.104,15.176 201.935,18.324l127.344,-220.566l-15.21,8.783l0,-324.034l147.908,85.411l171.763,-297.502c-107.242,-3.875 -211.774,-3.875 -211.774,-3.875c0,0 -87.227,0 -184.076,2.956Z" style="fill:#fff300;"/><path d="M1064.22,311.276l-348.724,604.008c95.966,-2.774 203.8,-8.399 246.474,-19.808c46.389,-12.371 82.985,-48.966 95.527,-95.527c22.507,-84.187 22.507,-259.949 22.507,-259.949c-0,0 -0,-138.721 -15.784,-228.724Z" style="fill:#00f0e1;"/><path d="M751.774,165.892l-171.763,297.502l132.658,76.606l-265.356,153.234l-127.344,220.566c110.073,4.183 220.031,4.183 220.031,4.183c0,-0 82.13,-0 175.492,-2.699l348.724,-604.008c-1.98,-11.294 -4.211,-21.83 -6.723,-31.225c-12.371,-46.389 -48.966,-82.985 -95.527,-95.527c-37.354,-9.986 -124.632,-15.542 -210.192,-18.632Z" style="fill:#e0f;"/></g></svg>